<?xml version="1.0" encoding="utf-8"?>
<!-- Generator: Adobe Illustrator 27.5.0, SVG Export Plug-In . SVG Version: 6.00 Build 0)  -->
<svg version="1.1" xmlns="http://www.w3.org/2000/svg" xmlns:xlink="http://www.w3.org/1999/xlink" x="0px" y="0px"
	 viewBox="0 0 750 500" style="enable-background:new 0 0 750 500;" xml:space="preserve">
<g id="Background_Simple">
	<g>
		<path style="fill:#92E3A9;" d="M692.763,353.865c17.262-31.958,19.812-68.472,15.764-103.714
			c-3.591-31.26-9.012-67.116-24.17-95.333C645.96,83.341,548.887,49.793,470.066,71.287c-32.874,8.964-55.934,29.746-82.33,49.521
			c-19.515,14.62-40.929,28.896-66.144,31.819c-60.395,7-129.12-50-186.39-45s-102.046,56-104.129,100
			c-2.083,44,41.652,89,37.486,119c-4.165,30-31.239,110,76.014,113s163.482-57,205.134-44c41.651,13,133.282,50.999,210.336,41
			c50.271-6.523,99.415-31.207,126.974-73.141C689.093,360.328,691.005,357.119,692.763,353.865z"/>
		<path style="opacity:0.8;fill:#FFFFFF;" d="M692.763,353.865c17.262-31.958,19.812-68.472,15.764-103.714
			c-3.591-31.26-9.012-67.116-24.17-95.333C645.96,83.341,548.887,49.793,470.066,71.287c-32.874,8.964-55.934,29.746-82.33,49.521
			c-19.515,14.62-40.929,28.896-66.144,31.819c-60.395,7-129.12-50-186.39-45s-102.046,56-104.129,100
			c-2.083,44,41.652,89,37.486,119c-4.165,30-31.239,110,76.014,113s163.482-57,205.134-44c41.651,13,133.282,50.999,210.336,41
			c50.271-6.523,99.415-31.207,126.974-73.141C689.093,360.328,691.005,357.119,692.763,353.865z"/>
	</g>
</g>
<g id="Floor">
	<line style="fill:none;stroke:#263238;stroke-miterlimit:10;" x1="13.428" y1="431.138" x2="731.884" y2="431.138"/>
</g>
<g id="Line">
	<path style="fill:none;stroke:#263238;stroke-miterlimit:10;stroke-dasharray:3,3;" d="M605.909,117.378
		c0,0-65.592,32.568-118.477,29.619c-48.136-2.684-89.06-28.57-132.787-46.033c-72.751-29.054-160.239-31.155-227.446,13.605
		c-17.096,11.386-31.702,26.365-41.635,44.419c-20.641,37.516-22.054,87.137-0.919,124.822
		c19.105,34.066,54.086,57.458,90.944,68.508c14.019,4.203,28.584,6.701,43.222,7.124c12.952,0.375,25.345-1.236,37.674-5.202
		c17.324-5.573,31.082-18.549,45.002-29.693c15.319-12.264,30.971-23.972,47.464-34.627c65.855-42.546,142.38-73.275,222.01-67.983
		c8.119,0.54,16.215,1.435,24.254,2.694c22.939,3.594,46.534,11.503,64.003,27.887c13.815,12.957,23.756,32.754,21.469,52.353
		c-2.069,17.723-14.438,32.98-27.636,44.125c-9.889,8.351-28.546,25.617-42.492,23.159"/>
</g>
<g id="Paper_Plane">
	<g>
		<polygon style="fill:#263238;" points="608.741,103.871 612.448,120.199 648.241,93.729 		"/>
		<polygon style="fill:#FFFFFF;stroke:#263238;stroke-linecap:round;stroke-linejoin:round;stroke-miterlimit:10;" points="
			610.814,108.098 612.448,120.199 625.243,110.357 		"/>
		<polygon style="fill:#FFFFFF;stroke:#263238;stroke-linecap:round;stroke-linejoin:round;stroke-miterlimit:10;" points="
			602.385,92.408 608.741,103.871 648.241,93.729 		"/>
		<polygon style="fill:#FFFFFF;stroke:#263238;stroke-linecap:round;stroke-linejoin:round;stroke-miterlimit:10;" points="
			648.241,93.729 618.063,123.948 610.814,108.098 		"/>
	</g>
</g>
<g id="Math">
	<g>
		<polygon style="fill:none;stroke:#263238;stroke-miterlimit:10;" points="487.399,62.977 479.497,62.977 479.497,74.391 
			468.961,74.391 468.961,81.342 479.497,81.342 479.497,93.049 487.399,93.049 487.399,81.342 498.007,81.342 498.007,74.391 
			487.399,74.391 		"/>
		<rect x="504.447" y="73.805" style="fill:none;stroke:#263238;stroke-miterlimit:10;" width="23.194" height="7.243"/>
		<polygon style="fill:none;stroke:#263238;stroke-miterlimit:10;" points="529.075,107.52 522.873,101.318 516.044,108.147 
			509.214,101.318 503.012,107.52 509.841,114.349 503.012,121.179 509.214,127.381 516.044,120.552 522.873,127.381 
			529.075,121.179 522.246,114.349 		"/>
		<rect x="471.591" y="111.666" style="fill:none;stroke:#263238;stroke-miterlimit:10;" width="23.194" height="7.243"/>
		<circle style="fill:none;stroke:#263238;stroke-miterlimit:10;" cx="483.115" cy="105.895" r="4.381"/>
		<circle style="fill:none;stroke:#263238;stroke-miterlimit:10;" cx="483.115" cy="124.983" r="4.381"/>
	</g>
</g>
<g id="Clouds">
	<path style="fill:none;stroke:#263238;stroke-miterlimit:10;" d="M258.078,151.686c0,0-10.116-12.814-19.558-12.814
		c-9.442,0-10.791,10.791-13.488,12.14c-2.698,1.349-14.163-6.07-18.884-4.046c-4.721,2.023-6.07,9.442-6.07,9.442
		s-8.768-4.721-12.814-2.698s-8.093,8.093-8.093,8.093l-10.791,4.721h113.303c0,0,0-12.814-7.419-14.837
		C266.845,149.662,265.497,160.453,258.078,151.686z"/>
	<path style="fill:none;stroke:#263238;stroke-miterlimit:10;" d="M400.942,158.745c0,0-5.303-6.718-10.253-6.718
		c-4.95,0-5.657,5.657-7.071,6.364c-1.414,0.707-7.425-3.182-9.9-2.121c-2.475,1.061-3.182,4.95-3.182,4.95
		s-4.596-2.475-6.718-1.414s-4.243,4.243-4.243,4.243l-5.657,2.475h59.399c0,0,0-6.718-3.889-7.778S404.831,163.341,400.942,158.745
		z"/>
	<path style="fill:none;stroke:#263238;stroke-miterlimit:10;" d="M699.148,158.745c0,0-5.304-6.718-10.253-6.718
		s-5.657,5.657-7.071,6.364c-1.414,0.707-7.425-3.182-9.9-2.121c-2.475,1.061-3.182,4.95-3.182,4.95s-4.596-2.475-6.718-1.414
		s-4.243,4.243-4.243,4.243l-5.657,2.475h59.399c0,0,0-6.718-3.889-7.778S703.037,163.341,699.148,158.745z"/>
	<path style="fill:none;stroke:#263238;stroke-miterlimit:10;" d="M303.395,196.04c0,0-5.863-7.426-11.335-7.426
		s-6.254,6.254-7.817,7.035c-1.563,0.782-8.208-3.518-10.944-2.345c-2.736,1.173-3.518,5.472-3.518,5.472s-5.081-2.736-7.426-1.563
		c-2.345,1.173-4.69,4.69-4.69,4.69l-6.254,2.736h65.663c0,0,0-7.426-4.299-8.599C308.476,194.868,307.694,201.122,303.395,196.04z"
		/>
</g>
<g id="Musical_Notes">
	<path style="fill:#263238;" d="M600.959,181.701c0.184-0.572,0.088-1.197-0.261-1.687c-0.349-0.489-0.908-0.788-1.509-0.8
		l-20.883-0.475c-0.844-0.019-1.599,0.519-1.857,1.322l-7.012,21.83c-0.549-0.444-1.178-0.807-1.89-1.036
		c-3.1-0.996-6.419,0.71-7.415,3.81c-0.996,3.099,0.71,6.419,3.809,7.415c2.932,0.942,6.036-0.551,7.208-3.336l0.08,0.026
		l5.349-16.654l16.91,0.384l-3.096,9.64c-0.542-0.431-1.157-0.787-1.855-1.011c-3.1-0.995-6.419,0.71-7.415,3.81
		c-0.996,3.099,0.71,6.419,3.809,7.415c3.099,0.995,6.419-0.71,7.415-3.81c0.009-0.029,0.01-0.058,0.019-0.087L600.959,181.701z
		 M594.704,188.715l-16.91-0.384l1.847-5.75l16.91,0.385L594.704,188.715z"/>
	<path style="fill:#263238;" d="M563.279,157.027c0.184-0.572,0.088-1.197-0.261-1.687c-0.349-0.489-0.908-0.788-1.509-0.8
		l-20.883-0.475c-0.844-0.019-1.599,0.519-1.857,1.322l-7.012,21.83c-0.549-0.444-1.178-0.807-1.891-1.036
		c-3.099-0.996-6.419,0.71-7.415,3.81c-0.996,3.099,0.71,6.419,3.809,7.415c2.932,0.942,6.036-0.551,7.208-3.336l0.08,0.026
		l5.349-16.654l16.91,0.384l-3.096,9.64c-0.542-0.431-1.157-0.787-1.855-1.011c-3.099-0.995-6.419,0.71-7.415,3.81
		c-0.996,3.099,0.71,6.419,3.809,7.415c3.099,0.995,6.419-0.71,7.415-3.809c0.009-0.029,0.01-0.058,0.018-0.087L563.279,157.027z
		 M557.024,164.041l-16.91-0.384l1.847-5.75l16.91,0.385L557.024,164.041z"/>
	<path style="fill:#263238;" d="M635.865,201.96c0.081-0.253,0.039-0.529-0.116-0.746c-0.154-0.216-0.401-0.348-0.667-0.354
		l-9.234-0.21c-0.373-0.008-0.707,0.229-0.821,0.585l-3.1,9.653c-0.243-0.196-0.521-0.357-0.836-0.458
		c-1.37-0.44-2.838,0.314-3.279,1.684c-0.44,1.37,0.314,2.838,1.684,3.279c1.296,0.416,2.669-0.243,3.187-1.475l0.035,0.011
		l2.365-7.364l7.477,0.17l-1.369,4.262c-0.24-0.19-0.511-0.348-0.82-0.447c-1.37-0.44-2.838,0.314-3.279,1.684
		c-0.44,1.37,0.314,2.838,1.685,3.279c1.37,0.44,2.838-0.314,3.278-1.684c0.004-0.013,0.004-0.026,0.008-0.038L635.865,201.96z
		 M633.099,205.061l-7.477-0.17l0.817-2.543l7.477,0.17L633.099,205.061z"/>
	<path style="fill:#263238;" d="M480.234,184.281c0.081-0.253,0.039-0.529-0.115-0.746c-0.154-0.216-0.401-0.348-0.667-0.354
		l-9.234-0.21c-0.373-0.008-0.707,0.23-0.821,0.585l-3.1,9.653c-0.243-0.196-0.521-0.357-0.836-0.458
		c-1.371-0.44-2.838,0.314-3.279,1.684c-0.44,1.37,0.314,2.838,1.684,3.279c1.297,0.416,2.669-0.243,3.187-1.475l0.035,0.011
		l2.365-7.364l7.477,0.17l-1.369,4.262c-0.24-0.191-0.511-0.348-0.82-0.447c-1.371-0.44-2.838,0.314-3.279,1.684
		c-0.44,1.37,0.314,2.838,1.684,3.278c1.37,0.44,2.838-0.314,3.278-1.684c0.004-0.013,0.004-0.026,0.008-0.038L480.234,184.281z
		 M477.469,187.382l-7.477-0.17l0.817-2.543l7.477,0.17L477.469,187.382z"/>
</g>
<g id="Light_Bulb">
	<g>
		<g>
			<path style="fill:#FFFFFF;stroke:#263238;stroke-linecap:round;stroke-linejoin:round;stroke-miterlimit:10;" d="
				M541.952,256.091c0-11.11-9.389-20.027-20.666-19.249c-9.402,0.649-17.066,8.187-17.856,17.578
				c-0.45,5.343,1.281,10.277,4.4,14.015c2.842,3.407,4.396,7.705,4.396,12.142v2.644h20.861v-2.644
				c0-4.432,1.545-8.729,4.387-12.13C540.269,265.099,541.952,260.793,541.952,256.091z"/>
			
				<rect x="512.225" y="283.226" style="fill:#FFFFFF;stroke:#263238;stroke-linecap:round;stroke-linejoin:round;stroke-miterlimit:10;" width="20.861" height="5.16"/>
			<path style="fill:#FFFFFF;stroke:#263238;stroke-linecap:round;stroke-linejoin:round;stroke-miterlimit:10;" d="
				M528.361,293.559h-11.41c-2.61,0-4.725-2.116-4.725-4.725v-0.435h20.861v0.435C533.086,291.444,530.97,293.559,528.361,293.559z"
				/>
			<path style="fill:#FFFFFF;stroke:#263238;stroke-linecap:round;stroke-linejoin:round;stroke-miterlimit:10;" d="
				M525.294,298.713h-5.276c-2.85,0-5.16-2.31-5.16-5.16l0,0h15.596l0,0C530.454,296.403,528.143,298.713,525.294,298.713z"/>
		</g>
		<g>
			
				<line style="fill:none;stroke:#263238;stroke-linecap:round;stroke-linejoin:round;stroke-miterlimit:10;" x1="544.691" y1="256.192" x2="553.53" y2="256.192"/>
			
				<line style="fill:none;stroke:#263238;stroke-linecap:round;stroke-linejoin:round;stroke-miterlimit:10;" x1="490.953" y1="256.192" x2="499.906" y2="256.192"/>
			
				<line style="fill:none;stroke:#263238;stroke-linecap:round;stroke-linejoin:round;stroke-miterlimit:10;" x1="522.241" y1="233.767" x2="522.241" y2="224.903"/>
			
				<line style="fill:none;stroke:#263238;stroke-linecap:round;stroke-linejoin:round;stroke-miterlimit:10;" x1="538.264" y1="240.169" x2="544.366" y2="234.067"/>
			
				<line style="fill:none;stroke:#263238;stroke-linecap:round;stroke-linejoin:round;stroke-miterlimit:10;" x1="500.117" y1="278.316" x2="506.308" y2="272.125"/>
			
				<line style="fill:none;stroke:#263238;stroke-linecap:round;stroke-linejoin:round;stroke-miterlimit:10;" x1="506.042" y1="239.993" x2="500.117" y2="234.067"/>
			
				<line style="fill:none;stroke:#263238;stroke-linecap:round;stroke-linejoin:round;stroke-miterlimit:10;" x1="544.366" y1="278.316" x2="538.465" y2="272.415"/>
		</g>
	</g>
</g>
<g id="Books_1_">
	<g>
		<polyline style="fill:none;stroke:#263238;stroke-linecap:round;stroke-linejoin:round;stroke-miterlimit:10;" points="
			415.057,281.66 413.716,282.331 425.576,305.019 445.428,283.878 469.664,276.401 457.546,257.064 456.482,257.146 		"/>
		<path style="fill:none;stroke:#263238;stroke-linecap:round;stroke-linejoin:round;stroke-miterlimit:10;" d="M432.795,262.478
			l10.571,19.079c0,0-4.641-1.031-5.672,3.352c-1.031,4.383-5.672,10.055-7.735,12.633c-2.063,2.578-4.125,4.383-4.125,4.383
			l-11.344-21.657c0,0,5.414-4.383,7.993-10.571C425.06,263.509,429.186,261.705,432.795,262.478z"/>
		<path style="fill:none;stroke:#263238;stroke-linecap:round;stroke-linejoin:round;stroke-miterlimit:10;" d="M443.366,281.557
			c0,0,1.289-3.867,4.383-4.125c3.094-0.258,8.766,0.773,13.665-0.773c4.899-1.547,5.672-2.063,5.672-2.063l-11.86-19.337
			c0,0-2.836,2.32-10.055,2.32c-7.219,0-11.602,1.289-12.376,4.899L443.366,281.557z"/>
		<path style="fill:none;stroke:#263238;stroke-linecap:round;stroke-linejoin:round;stroke-miterlimit:10;" d="M444.139,283.62
			c0,0-1.805,0.773-3.61,2.32c-1.805,1.547-3.352,4.383-6.446,8.25"/>
		<path style="fill:none;stroke:#263238;stroke-linecap:round;stroke-linejoin:round;stroke-miterlimit:10;" d="M446.202,282.073
			c0,0,1.805-2.32,4.641-2.578c2.836-0.258,7.735-0.258,15.727-3.352"/>
		<path style="fill:none;stroke:#263238;stroke-linecap:round;stroke-linejoin:round;stroke-miterlimit:10;" d="M418.357,283.104
			c0,0,2.578-2.836,6.188-7.992c3.61-5.156,6.188-7.219,9.024-7.219"/>
		<path style="fill:none;stroke:#263238;stroke-linecap:round;stroke-linejoin:round;stroke-miterlimit:10;" d="M420.419,286.456
			c0,0,2.578-2.836,6.188-7.993c3.609-5.156,6.188-7.219,9.024-7.219"/>
		<path style="fill:none;stroke:#263238;stroke-linecap:round;stroke-linejoin:round;stroke-miterlimit:10;" d="M422.482,289.807
			c0,0,2.578-2.836,6.188-7.992s6.188-7.219,9.024-7.219"/>
		<path style="fill:none;stroke:#263238;stroke-linecap:round;stroke-linejoin:round;stroke-miterlimit:10;" d="M424.545,293.159
			c0,0,2.578-2.836,6.188-7.993c3.61-5.156,6.188-7.219,9.024-7.219"/>
		<path style="fill:none;stroke:#263238;stroke-linecap:round;stroke-linejoin:round;stroke-miterlimit:10;" d="M437.178,266.346
			c0,0,1.031-2.836,4.899-2.836c3.867,0,12.409-0.34,13.407-3.352"/>
		<path style="fill:none;stroke:#263238;stroke-linecap:round;stroke-linejoin:round;stroke-miterlimit:10;" d="M439.499,270.213
			c0,0,1.805-2.32,6.703-2.32c4.899,0,9.282-1.031,12.118-3.867"/>
		<path style="fill:none;stroke:#263238;stroke-linecap:round;stroke-linejoin:round;stroke-miterlimit:10;" d="M441.046,274.08
			c0,0,1.547-3.352,5.93-3.352c4.383,0,9.797-0.773,12.891-3.094"/>
		<path style="fill:none;stroke:#263238;stroke-linecap:round;stroke-linejoin:round;stroke-miterlimit:10;" d="M442.85,276.916
			c0,0,0.773-2.578,5.156-2.836c4.383-0.258,9.797-1.289,13.923-3.094"/>
	</g>
	<g>
		<polyline style="fill:none;stroke:#263238;stroke-linecap:round;stroke-linejoin:round;stroke-miterlimit:10;" points="
			257.241,252.318 255.876,253.001 267.955,276.109 288.175,254.576 312.858,246.961 300.517,227.266 299.432,227.35 		"/>
		<path style="fill:none;stroke:#263238;stroke-linecap:round;stroke-linejoin:round;stroke-miterlimit:10;" d="M275.308,232.781
			l10.766,19.432c0,0-4.727-1.05-5.777,3.414c-1.05,4.464-5.777,10.241-7.878,12.867c-2.101,2.626-4.202,4.464-4.202,4.464
			L256.664,250.9c0,0,5.514-4.464,8.14-10.766C267.43,233.831,271.631,231.993,275.308,232.781z"/>
		<path style="fill:none;stroke:#263238;stroke-linecap:round;stroke-linejoin:round;stroke-miterlimit:10;" d="M286.074,252.213
			c0,0,1.313-3.939,4.464-4.202c3.151-0.262,8.928,0.788,13.917-0.788c4.989-1.576,5.777-2.101,5.777-2.101l-12.079-19.694
			c0,0-2.888,2.363-10.241,2.363s-11.817,1.313-12.605,4.989L286.074,252.213z"/>
		<path style="fill:none;stroke:#263238;stroke-linecap:round;stroke-linejoin:round;stroke-miterlimit:10;" d="M286.862,254.314
			c0,0-1.838,0.788-3.676,2.363c-1.838,1.576-3.414,4.464-6.565,8.403"/>
		<path style="fill:none;stroke:#263238;stroke-linecap:round;stroke-linejoin:round;stroke-miterlimit:10;" d="M288.962,252.738
			c0,0,1.838-2.363,4.727-2.626c2.889-0.263,7.878-0.263,16.018-3.414"/>
		<path style="fill:none;stroke:#263238;stroke-linecap:round;stroke-linejoin:round;stroke-miterlimit:10;" d="M260.603,253.788
			c0,0,2.626-2.889,6.302-8.14s6.302-7.353,9.191-7.353"/>
		<path style="fill:none;stroke:#263238;stroke-linecap:round;stroke-linejoin:round;stroke-miterlimit:10;" d="M262.703,257.202
			c0,0,2.626-2.888,6.302-8.14c3.676-5.252,6.302-7.352,9.191-7.352"/>
		<path style="fill:none;stroke:#263238;stroke-linecap:round;stroke-linejoin:round;stroke-miterlimit:10;" d="M264.804,260.616
			c0,0,2.626-2.888,6.302-8.14c3.676-5.252,6.302-7.353,9.191-7.353"/>
		<path style="fill:none;stroke:#263238;stroke-linecap:round;stroke-linejoin:round;stroke-miterlimit:10;" d="M266.905,264.029
			c0,0,2.626-2.888,6.302-8.14c3.676-5.252,6.302-7.353,9.191-7.353"/>
		<path style="fill:none;stroke:#263238;stroke-linecap:round;stroke-linejoin:round;stroke-miterlimit:10;" d="M279.772,236.72
			c0,0,1.05-2.889,4.989-2.889c3.939,0,12.638-0.346,13.655-3.414"/>
		<path style="fill:none;stroke:#263238;stroke-linecap:round;stroke-linejoin:round;stroke-miterlimit:10;" d="M282.135,240.659
			c0,0,1.838-2.363,6.827-2.363c4.989,0,9.453-1.05,12.342-3.939"/>
		<path style="fill:none;stroke:#263238;stroke-linecap:round;stroke-linejoin:round;stroke-miterlimit:10;" d="M283.711,244.598
			c0,0,1.576-3.414,6.04-3.414c4.464,0,9.979-0.788,13.13-3.151"/>
		<path style="fill:none;stroke:#263238;stroke-linecap:round;stroke-linejoin:round;stroke-miterlimit:10;" d="M285.549,247.486
			c0,0,0.788-2.626,5.252-2.889c4.464-0.263,9.978-1.313,14.18-3.151"/>
	</g>
	<g>
		<polyline style="fill:none;stroke:#263238;stroke-linecap:round;stroke-linejoin:round;stroke-miterlimit:10;" points="
			617.484,306.285 630.777,279.918 627.274,279.409 613.851,304.496 587.187,292.527 584.116,296.289 613.343,307.998 		"/>
		<polyline style="fill:none;stroke:#263238;stroke-linecap:round;stroke-linejoin:round;stroke-miterlimit:10;" points="
			613.851,304.496 602.869,264.192 580.734,254.353 587.397,290.348 		"/>
		<polyline style="fill:none;stroke:#263238;stroke-linecap:round;stroke-linejoin:round;stroke-miterlimit:10;" points="
			580.734,254.353 577.966,261.104 584.116,296.289 		"/>
		<polyline style="fill:none;stroke:#263238;stroke-linecap:round;stroke-linejoin:round;stroke-miterlimit:10;" points="
			602.869,264.192 615.016,243.549 625.647,276.123 		"/>
		<polyline style="fill:none;stroke:#263238;stroke-linecap:round;stroke-linejoin:round;stroke-miterlimit:10;" points="
			630.777,279.918 618.903,243.587 615.016,243.549 		"/>
		
			<line style="fill:none;stroke:#263238;stroke-linecap:round;stroke-linejoin:round;stroke-miterlimit:10;" x1="611.571" y1="290.49" x2="621.118" y2="273.993"/>
		
			<line style="fill:none;stroke:#263238;stroke-linecap:round;stroke-linejoin:round;stroke-miterlimit:10;" x1="609.982" y1="283.317" x2="619.529" y2="266.82"/>
		
			<line style="fill:none;stroke:#263238;stroke-linecap:round;stroke-linejoin:round;stroke-miterlimit:10;" x1="608.393" y1="276.144" x2="617.94" y2="259.647"/>
		
			<line style="fill:none;stroke:#263238;stroke-linecap:round;stroke-linejoin:round;stroke-miterlimit:10;" x1="606.804" y1="268.97" x2="616.351" y2="252.473"/>
		
			<line style="fill:none;stroke:#263238;stroke-linecap:round;stroke-linejoin:round;stroke-miterlimit:10;" x1="606.83" y1="290.538" x2="591.019" y2="283.511"/>
		
			<line style="fill:none;stroke:#263238;stroke-linecap:round;stroke-linejoin:round;stroke-miterlimit:10;" x1="606.139" y1="283.706" x2="590.328" y2="276.678"/>
		
			<line style="fill:none;stroke:#263238;stroke-linecap:round;stroke-linejoin:round;stroke-miterlimit:10;" x1="603.269" y1="276.662" x2="587.458" y2="269.634"/>
		
			<line style="fill:none;stroke:#263238;stroke-linecap:round;stroke-linejoin:round;stroke-miterlimit:10;" x1="602.107" y1="269.446" x2="586.296" y2="262.418"/>
	</g>
	<g>
		<polyline style="fill:none;stroke:#263238;stroke-linecap:round;stroke-linejoin:round;stroke-miterlimit:10;" points="
			284.765,138.812 293.865,120.762 291.467,120.414 282.279,137.587 264.026,129.394 261.924,131.969 281.931,139.985 		"/>
		<polyline style="fill:none;stroke:#263238;stroke-linecap:round;stroke-linejoin:round;stroke-miterlimit:10;" points="
			282.279,137.587 274.761,109.998 259.609,103.262 264.17,127.902 		"/>
		<polyline style="fill:none;stroke:#263238;stroke-linecap:round;stroke-linejoin:round;stroke-miterlimit:10;" points="
			259.609,103.262 257.715,107.884 261.924,131.969 		"/>
		<polyline style="fill:none;stroke:#263238;stroke-linecap:round;stroke-linejoin:round;stroke-miterlimit:10;" points="
			274.761,109.998 283.076,95.867 290.354,118.165 		"/>
		<polyline style="fill:none;stroke:#263238;stroke-linecap:round;stroke-linejoin:round;stroke-miterlimit:10;" points="
			293.865,120.762 285.737,95.893 283.076,95.867 		"/>
		
			<line style="fill:none;stroke:#263238;stroke-linecap:round;stroke-linejoin:round;stroke-miterlimit:10;" x1="280.718" y1="127.999" x2="287.253" y2="116.707"/>
		
			<line style="fill:none;stroke:#263238;stroke-linecap:round;stroke-linejoin:round;stroke-miterlimit:10;" x1="279.63" y1="123.089" x2="286.165" y2="111.797"/>
		
			<line style="fill:none;stroke:#263238;stroke-linecap:round;stroke-linejoin:round;stroke-miterlimit:10;" x1="278.543" y1="118.179" x2="285.078" y2="106.886"/>
		
			<line style="fill:none;stroke:#263238;stroke-linecap:round;stroke-linejoin:round;stroke-miterlimit:10;" x1="277.455" y1="113.269" x2="283.99" y2="101.976"/>
		
			<line style="fill:none;stroke:#263238;stroke-linecap:round;stroke-linejoin:round;stroke-miterlimit:10;" x1="277.473" y1="128.033" x2="266.65" y2="123.222"/>
		
			<line style="fill:none;stroke:#263238;stroke-linecap:round;stroke-linejoin:round;stroke-miterlimit:10;" x1="276.999" y1="123.355" x2="266.176" y2="118.545"/>
		
			<line style="fill:none;stroke:#263238;stroke-linecap:round;stroke-linejoin:round;stroke-miterlimit:10;" x1="275.035" y1="118.534" x2="264.212" y2="113.723"/>
		
			<line style="fill:none;stroke:#263238;stroke-linecap:round;stroke-linejoin:round;stroke-miterlimit:10;" x1="274.239" y1="113.594" x2="263.417" y2="108.783"/>
	</g>
	<g>
		<polyline style="fill:none;stroke:#263238;stroke-linecap:round;stroke-linejoin:round;stroke-miterlimit:10;" points="
			382.729,240.645 393.764,218.758 390.856,218.335 379.713,239.16 357.579,229.224 355.03,232.347 379.291,242.068 		"/>
		<polyline style="fill:none;stroke:#263238;stroke-linecap:round;stroke-linejoin:round;stroke-miterlimit:10;" points="
			379.713,239.16 370.597,205.703 352.223,197.536 357.754,227.416 		"/>
		<polyline style="fill:none;stroke:#263238;stroke-linecap:round;stroke-linejoin:round;stroke-miterlimit:10;" points="
			352.223,197.536 349.925,203.14 355.03,232.347 		"/>
		<polyline style="fill:none;stroke:#263238;stroke-linecap:round;stroke-linejoin:round;stroke-miterlimit:10;" points="
			370.597,205.703 380.681,188.567 389.505,215.607 		"/>
		<polyline style="fill:none;stroke:#263238;stroke-linecap:round;stroke-linejoin:round;stroke-miterlimit:10;" points="
			393.764,218.758 383.907,188.599 380.681,188.567 		"/>
		
			<line style="fill:none;stroke:#263238;stroke-linecap:round;stroke-linejoin:round;stroke-miterlimit:10;" x1="377.82" y1="227.534" x2="385.745" y2="213.839"/>
		
			<line style="fill:none;stroke:#263238;stroke-linecap:round;stroke-linejoin:round;stroke-miterlimit:10;" x1="376.501" y1="221.579" x2="384.426" y2="207.885"/>
		
			<line style="fill:none;stroke:#263238;stroke-linecap:round;stroke-linejoin:round;stroke-miterlimit:10;" x1="375.182" y1="215.624" x2="383.107" y2="201.93"/>
		
			<line style="fill:none;stroke:#263238;stroke-linecap:round;stroke-linejoin:round;stroke-miterlimit:10;" x1="373.864" y1="209.67" x2="381.788" y2="195.976"/>
		
			<line style="fill:none;stroke:#263238;stroke-linecap:round;stroke-linejoin:round;stroke-miterlimit:10;" x1="373.885" y1="227.574" x2="360.761" y2="221.74"/>
		
			<line style="fill:none;stroke:#263238;stroke-linecap:round;stroke-linejoin:round;stroke-miterlimit:10;" x1="373.311" y1="221.902" x2="360.186" y2="216.068"/>
		
			<line style="fill:none;stroke:#263238;stroke-linecap:round;stroke-linejoin:round;stroke-miterlimit:10;" x1="370.929" y1="216.055" x2="357.804" y2="210.221"/>
		
			<line style="fill:none;stroke:#263238;stroke-linecap:round;stroke-linejoin:round;stroke-miterlimit:10;" x1="369.964" y1="210.065" x2="356.84" y2="204.231"/>
	</g>
</g>
<g id="Trees">
	<g>
		<g>
			<path style="fill:#92E3A9;" d="M654.016,264.932c0,0,23.502,2.325,35.414,16.894c0,0,12.585-16.878,35.188-16.532
				c6.559-7.906,10.505-18.058,10.509-29.133c0.009-25.229-20.436-45.688-45.666-45.697c-25.229-0.009-45.688,20.436-45.697,45.666
				c-0.004,10.936,3.838,20.975,10.245,28.842L654.016,264.932z"/>
			<path style="opacity:0.5;fill:#92E3A9;" d="M654.016,264.932c0,0,23.502,2.325,35.414,16.894c0,0,12.585-16.878,35.188-16.532
				c6.559-7.906,10.505-18.058,10.509-29.133c0.009-25.229-20.436-45.688-45.666-45.697c-25.229-0.009-45.688,20.436-45.697,45.666
				c-0.004,10.936,3.838,20.975,10.245,28.842L654.016,264.932z"/>
			<g>
				<polygon style="fill:#828282;" points="688.652,193.685 687.858,432.121 691.826,432.121 				"/>
				<path style="fill:#828282;" d="M689.842,277.386c0,0,7.934-14.281,22.214-18.644c0,0-15.074,3.57-22.611,15.867L689.842,277.386
					z"/>
				<path style="fill:#828282;" d="M688.977,237.31c0,0,8.799-14.667,23.079-19.031c0,0-15.542,4.473-23.079,16.77V237.31z"/>
				<path style="fill:#828282;" d="M689.285,258.172c0,0,8.49-15.298,22.771-19.661c0,0-15.44,4.281-22.977,16.578L689.285,258.172z
					"/>
				<path style="fill:#828282;" d="M688.666,247.238c0,0-7.656-14.281-21.435-18.644c0,0,14.545,3.57,21.818,15.868L688.666,247.238
					z"/>
				<path style="fill:#828282;" d="M688.666,267.072c0,0-7.656-14.281-21.435-18.644c0,0,14.545,3.57,21.818,15.867L688.666,267.072
					z"/>
			</g>
		</g>
		<g>
			<path style="fill:#92E3A9;" d="M56.838,210.22c0,0,31.193,3.086,47.003,22.423c0,0,16.703-22.401,46.704-21.942
				c8.706-10.493,13.943-23.968,13.948-38.667c0.012-33.485-27.124-60.64-60.61-60.651c-33.485-0.012-60.64,27.124-60.652,60.61
				c-0.005,14.515,5.094,27.839,13.598,38.28L56.838,210.22z"/>
			<path style="opacity:0.5;fill:#92E3A9;" d="M56.838,210.22c0,0,31.193,3.086,47.003,22.423c0,0,16.703-22.401,46.704-21.942
				c8.706-10.493,13.943-23.968,13.948-38.667c0.012-33.485-27.124-60.64-60.61-60.651c-33.485-0.012-60.64,27.124-60.652,60.61
				c-0.005,14.515,5.094,27.839,13.598,38.28L56.838,210.22z"/>
			<g>
				<polygon style="fill:#828282;" points="102.808,115.656 101.755,432.121 107.02,432.121 				"/>
				<path style="fill:#828282;" d="M104.388,226.749c0,0,10.53-18.954,29.484-24.746c0,0-20.007,4.738-30.011,21.06L104.388,226.749
					z"/>
				<path style="fill:#828282;" d="M103.24,173.558c0,0,11.678-19.467,30.632-25.258c0,0-20.629,5.936-30.632,22.258V173.558z"/>
				<path style="fill:#828282;" d="M103.649,201.247c0,0,11.269-20.304,30.223-26.095c0,0-20.492,5.682-30.496,22.004
					L103.649,201.247z"/>
				<path style="fill:#828282;" d="M102.827,186.735c0,0-10.161-18.954-28.45-24.746c0,0,19.305,4.738,28.958,21.06L102.827,186.735
					z"/>
				<path style="fill:#828282;" d="M102.827,213.059c0,0-10.161-18.954-28.45-24.746c0,0,19.305,4.739,28.958,21.06L102.827,213.059
					z"/>
			</g>
		</g>
		<g>
			<path style="fill:#92E3A9;" d="M17.305,307.029c0,0,17.584,1.74,26.497,12.641c0,0,9.416-12.628,26.328-12.369
				c4.908-5.915,7.86-13.511,7.863-21.798c0.007-18.877-15.291-34.185-34.168-34.191c-18.877-0.007-34.185,15.291-34.191,34.168
				c-0.003,8.183,2.872,15.694,7.665,21.58L17.305,307.029z"/>
			<path style="fill:#92E3A9;" d="M17.305,307.029c0,0,17.584,1.74,26.497,12.641c0,0,9.416-12.628,26.328-12.369
				c4.908-5.915,7.86-13.511,7.863-21.798c0.007-18.877-15.291-34.185-34.168-34.191c-18.877-0.007-34.185,15.291-34.191,34.168
				c-0.003,8.183,2.872,15.694,7.665,21.58L17.305,307.029z"/>
			<path style="opacity:0.5;fill:#FFFFFF;" d="M17.305,307.029c0,0,17.584,1.74,26.497,12.641c0,0,9.416-12.628,26.328-12.369
				c4.908-5.915,7.86-13.511,7.863-21.798c0.007-18.877-15.291-34.185-34.168-34.191c-18.877-0.007-34.185,15.291-34.191,34.168
				c-0.003,8.183,2.872,15.694,7.665,21.58L17.305,307.029z"/>
			<g>
				<polygon style="fill:#828282;" points="43.22,253.721 42.626,432.121 45.595,432.121 				"/>
				<path style="fill:#828282;" d="M44.111,316.347c0,0,5.936-10.685,16.621-13.95c0,0-11.278,2.671-16.918,11.872L44.111,316.347z"
					/>
				<path style="fill:#828282;" d="M43.464,286.362c0,0,6.583-10.974,17.268-14.239c0,0-11.629,3.347-17.268,12.548V286.362z"/>
				<path style="fill:#828282;" d="M43.694,301.97c0,0,6.353-11.446,17.038-14.711c0,0-11.552,3.203-17.191,12.404L43.694,301.97z"
					/>
				<path style="fill:#828282;" d="M43.231,293.789c0,0-5.728-10.685-16.038-13.95c0,0,10.883,2.671,16.324,11.872L43.231,293.789z"
					/>
				<path style="fill:#828282;" d="M43.231,308.63c0,0-5.728-10.685-16.038-13.95c0,0,10.883,2.671,16.324,11.872L43.231,308.63z"/>
			</g>
		</g>
	</g>
</g>
<g id="Text_1_">
	<g>
		<path style="fill:#263238;" d="M59.098,430.396V313.963h52.323V331.5H84.829v28.893h20.268v17.824H84.829v34.787h26.881v17.393
			H59.098z"/>
		<path style="fill:#263238;" d="M123.351,430.396V313.963h29.468c10.156,0,18.062,1.271,23.718,3.809
			c5.653,2.54,9.631,6.518,11.931,11.931c2.3,5.415,3.45,12.434,3.45,21.059v42.261c0,8.721-1.15,15.836-3.45,21.346
			c-2.3,5.511-6.253,9.559-11.859,12.147c-5.606,2.588-13.44,3.881-23.502,3.881H123.351z M149.082,412.572h4.025
			c3.928,0,6.756-0.575,8.481-1.725c1.725-1.15,2.803-2.875,3.234-5.174c0.431-2.3,0.647-5.175,0.647-8.625v-50.742
			c0-3.45-0.265-6.228-0.791-8.337c-0.528-2.107-1.653-3.641-3.378-4.6c-1.725-0.957-4.505-1.437-8.337-1.437h-3.881V412.572z"/>
		<path style="fill:#263238;" d="M241.222,432.121c-8.912,0-15.884-1.462-20.915-4.385c-5.031-2.922-8.553-7.187-10.566-12.793
			c-2.012-5.606-3.018-12.481-3.018-20.627v-80.353h25.443v84.234c0,2.396,0.191,4.794,0.575,7.187
			c0.382,2.396,1.222,4.362,2.516,5.894c1.294,1.534,3.282,2.3,5.965,2.3c2.779,0,4.791-0.766,6.037-2.3
			c1.244-1.532,2.035-3.497,2.372-5.894c0.335-2.394,0.503-4.791,0.503-7.187v-84.234h25.587v80.353
			c0,8.146-1.031,15.021-3.091,20.627c-2.062,5.606-5.583,9.871-10.565,12.793C257.081,430.659,250.135,432.121,241.222,432.121z"/>
		<path style="fill:#263238;" d="M325.456,432.121c-8.818,0-15.789-1.606-20.915-4.815c-5.127-3.21-8.746-7.713-10.853-13.512
			c-2.109-5.797-3.162-12.625-3.162-20.484v-41.973c0-8.05,1.053-14.972,3.162-20.771c2.107-5.797,5.725-10.278,10.853-13.44
			c5.126-3.162,12.097-4.744,20.915-4.744c8.625,0,15.356,1.415,20.196,4.24c4.838,2.828,8.266,6.78,10.278,11.859
			c2.013,5.081,3.019,10.925,3.019,17.537v10.062h-25.155v-11.643c0-2.3-0.121-4.503-0.359-6.612
			c-0.24-2.107-0.935-3.856-2.084-5.247c-1.15-1.388-3.115-2.084-5.893-2.084c-2.684,0-4.672,0.719-5.965,2.156
			c-1.294,1.437-2.109,3.234-2.444,5.39c-0.337,2.156-0.503,4.434-0.503,6.828v54.767c0,2.587,0.216,4.958,0.647,7.115
			c0.431,2.156,1.293,3.881,2.587,5.174c1.294,1.294,3.185,1.941,5.678,1.941c2.682,0,4.6-0.694,5.75-2.085
			c1.15-1.388,1.869-3.184,2.156-5.39c0.287-2.203,0.431-4.456,0.431-6.755v-12.219h25.155v10.062
			c0,6.613-0.984,12.531-2.947,17.753c-1.965,5.224-5.368,9.343-10.206,12.362C340.956,430.612,334.175,432.121,325.456,432.121z"/>
		<path style="fill:#263238;" d="M367.428,430.396l21.993-116.433h29.324l21.706,116.433h-23.719l-3.881-24.58h-17.106l-4.025,24.58
			H367.428z M398.046,390.435h12.362l-6.181-45.423L398.046,390.435z"/>
		<path style="fill:#263238;" d="M456.55,430.396v-97.315h-17.537v-19.118h60.804v19.118h-17.393v97.315H456.55z"/>
		<path style="fill:#263238;" d="M510.165,430.396V313.963h25.731v116.433H510.165z"/>
		<path style="fill:#263238;" d="M637.523,430.396V313.963h18.112l23.862,56.06v-56.06h21.274v116.433h-17.393l-23.862-60.374
			v60.374H637.523z"/>
	</g>
</g>
<g id="Plants">
	<g>
		<g>
			<path style="fill:#263238;" d="M27.4,407.5c1.36-0.196,3.942-1.878,3.944-1.88c0.027-0.018-1.625-1.365-1.739-1.438
				c-1.32-0.845-4.367-1.703-5.721-0.587c-0.976,0.804-0.907,2.237-0.045,3.091C24.719,407.557,26.242,407.667,27.4,407.5z"/>
			<path style="fill:#263238;" d="M52.574,394.687c0.032,0-0.603-2.035-0.657-2.159c-0.634-1.433-2.702-3.829-4.448-3.646
				c-1.257,0.133-1.991,1.365-1.743,2.553c0.253,1.213,1.463,2.144,2.521,2.644C49.49,394.666,52.571,394.687,52.574,394.687z"/>
			<path style="fill:#263238;" d="M55.864,429.041c0.6,0.747,1.146,1.45,1.636,2.096h1.237c-0.622-0.798-1.347-1.701-2.167-2.676
				c-0.476-0.569-0.996-1.168-1.536-1.778c0.123-0.149,0.821-1.005,1.371-1.885c1.104,0.369,3.359,0.271,3.65,0.256
				c0.085,0.726,0.16,1.433,0.221,2.101c0.141,1.51,0.228,2.852,0.284,3.982h1.004c-0.082-1.154-0.2-2.528-0.379-4.076
				c-0.083-0.738-0.186-1.524-0.3-2.331c0.284-0.086,2.597-0.808,3.446-1.56c0.77-0.682,1.562-1.765,1.478-2.851
				c-0.083-1.063-1.005-1.923-2.098-1.726c-1.518,0.274-2.674,2.805-2.857,4.17c-0.011,0.081-0.03,0.967-0.033,1.527
				c-0.048-0.329-0.091-0.65-0.145-0.988c-0.102-0.67-0.223-1.335-0.352-2.052c-0.074-0.344-0.149-0.691-0.224-1.042
				c-0.067-0.349-0.183-0.71-0.274-1.069c-0.228-0.827-0.499-1.655-0.791-2.482c0.586-0.091,2.664-0.443,3.532-1.003
				c0.865-0.557,1.811-1.508,1.892-2.594c0.079-1.063-0.701-2.053-1.813-2.024c-1.542,0.041-3.068,2.367-3.455,3.689
				c-0.024,0.082-0.195,1.062-0.279,1.602c-0.179-0.496-0.356-0.992-0.554-1.488c-0.57-1.432-1.192-2.863-1.807-4.294
				c-0.188-0.438-0.371-0.877-0.555-1.316c0.209-0.03,2.687-0.395,3.66-1.022c0.865-0.557,1.811-1.508,1.892-2.594
				c0.079-1.063-0.701-2.053-1.813-2.024c-1.542,0.041-3.068,2.367-3.455,3.689c-0.029,0.1-0.274,1.51-0.318,1.871
				c-0.405-0.966-0.801-1.933-1.151-2.901c-0.486-1.336-0.889-2.674-1.183-3.998c0.097-0.014,2.686-0.383,3.682-1.026
				c0.865-0.558,1.811-1.508,1.892-2.594c0.08-1.063-0.702-2.053-1.813-2.024c-1.542,0.041-3.068,2.367-3.455,3.689
				c-0.025,0.087-0.213,1.161-0.29,1.674c-0.049,0.001-0.04,0.001-0.088,0.002c-0.299-1.423-0.408-2.839-0.446-4.169
				c-0.023-0.771-0.002-1.508,0.034-2.226c0.489-0.019,2.723-0.133,3.684-0.612c0.921-0.459,1.966-1.3,2.166-2.371
				c0.196-1.048-0.472-2.118-1.579-2.21c-1.537-0.129-3.309,2.016-3.839,3.287c-0.029,0.069-0.244,0.804-0.393,1.342
				c0.021-0.323,0.038-0.658,0.064-0.967c0.097-1.163,0.258-2.221,0.408-3.157c0.09-0.532,0.181-1.011,0.271-1.458
				c0.47-0.269,2.351-1.379,2.971-2.231c0.605-0.832,1.145-2.06,0.83-3.102c-0.309-1.021-1.395-1.662-2.42-1.234
				c-1.424,0.594-2.008,3.314-1.893,4.687c0.01,0.119,0.379,1.956,0.403,1.942c0,0,0.023-0.013,0.028-0.016
				c-0.096,0.429-0.193,0.889-0.289,1.395c-0.171,0.935-0.355,1.993-0.478,3.158c-0.126,1.164-0.23,2.432-0.219,3.777
				c0.009,1.349,0.088,2.767,0.358,4.217c0.003,0.016,0.008,0.033,0.011,0.049c-0.211-0.4-0.837-1.498-0.895-1.577
				c-0.813-1.112-3.038-2.782-4.502-2.297c-1.055,0.35-1.453,1.546-1.018,2.519c0.445,0.994,1.658,1.567,2.66,1.798
				c1.131,0.26,3.596-0.241,3.792-0.281c0.27,1.379,0.659,2.773,1.13,4.161c0.268,0.794,0.564,1.586,0.87,2.375
				c-0.193-0.34-0.369-0.642-0.398-0.682c-0.813-1.112-3.038-2.782-4.502-2.297c-1.055,0.35-1.453,1.546-1.018,2.519
				c0.445,0.994,1.658,1.567,2.66,1.798c1.017,0.234,3.128-0.151,3.685-0.26c0.121,0.302,0.238,0.604,0.359,0.906
				c0.583,1.446,1.172,2.886,1.706,4.316c0.189,0.504,0.356,1.007,0.525,1.51c-0.172-0.302-0.319-0.554-0.346-0.59
				c-0.813-1.112-3.038-2.782-4.502-2.297c-1.055,0.349-1.454,1.546-1.018,2.519c0.445,0.994,1.658,1.567,2.66,1.797
				c0.971,0.224,2.922-0.114,3.585-0.241c0.157,0.52,0.316,1.041,0.445,1.552c0.08,0.351,0.182,0.684,0.243,1.041
				c0.068,0.352,0.135,0.701,0.202,1.046c0.104,0.67,0.215,1.36,0.3,2.016c0.063,0.456,0.113,0.891,0.166,1.33
				c-0.182-0.504-0.558-1.483-0.599-1.561c-0.422-0.812-1.424-1.959-2.494-2.564c-0.062-0.12-0.134-0.235-0.217-0.341
				c-0.655-0.841-1.899-1.05-2.702-0.282c-1.115,1.066-0.683,3.814-0.082,5.054c0.035,0.073,0.509,0.823,0.815,1.292
				c-0.222-0.248-0.434-0.491-0.666-0.744c-0.455-0.503-0.923-0.991-1.425-1.518c-0.251-0.246-0.505-0.494-0.762-0.745
				c-0.249-0.254-0.544-0.491-0.818-0.74c-0.647-0.564-1.33-1.105-2.029-1.634c0.439-0.399,1.977-1.839,2.393-2.785
				c0.413-0.942,0.678-2.257,0.147-3.207c-0.52-0.931-1.718-1.325-2.628-0.688c-1.264,0.885-1.253,3.667-0.847,4.983
				c0.025,0.082,0.423,0.994,0.651,1.491c-0.423-0.315-0.844-0.631-1.283-0.936c-1.266-0.88-2.574-1.73-3.876-2.585
				c-0.399-0.261-0.793-0.527-1.189-0.791c0.158-0.14,2.024-1.812,2.489-2.872c0.414-0.942,0.679-2.257,0.147-3.207
				c-0.52-0.93-1.718-1.325-2.628-0.688c-1.264,0.885-1.253,3.667-0.847,4.983c0.031,0.099,0.605,1.41,0.767,1.736
				c-0.871-0.582-1.734-1.17-2.561-1.785c-1.142-0.846-2.216-1.74-3.193-2.682c0.074-0.065,2.029-1.801,2.505-2.887
				c0.414-0.942,0.679-2.257,0.147-3.207c-0.52-0.931-1.718-1.325-2.628-0.688c-1.264,0.885-1.253,3.667-0.847,4.983
				c0.027,0.087,0.463,1.086,0.682,1.557c-0.04,0.028-0.032,0.023-0.072,0.05c-1.034-1.022-1.907-2.143-2.672-3.232
				c-0.444-0.63-0.834-1.257-1.199-1.875c0.397-0.286,2.199-1.613,2.735-2.543c0.514-0.891,0.922-2.169,0.498-3.172
				c-0.415-0.982-1.562-1.506-2.537-0.972c-1.353,0.741-1.648,3.507-1.389,4.86c0.014,0.073,0.24,0.805,0.412,1.336
				c-0.16-0.282-0.331-0.569-0.48-0.842c-0.56-1.023-1.01-1.995-1.402-2.858c-0.219-0.493-0.407-0.943-0.578-1.366
				c0.243-0.484,1.2-2.447,1.247-3.5c0.046-1.028-0.181-2.35-1.019-3.045c-0.821-0.68-2.08-0.617-2.699,0.306
				c-0.859,1.281,0.153,3.872,1.007,4.953c0.074,0.094,1.395,1.423,1.408,1.397c0,0,0.012-0.024,0.015-0.029
				c0.157,0.41,0.33,0.848,0.528,1.323c0.373,0.874,0.803,1.858,1.343,2.897c0.537,1.04,1.15,2.155,1.901,3.271
				c0.752,1.12,1.599,2.259,2.625,3.32c0.012,0.012,0.025,0.023,0.037,0.035c-0.396-0.217-1.525-0.787-1.616-0.821
				c-1.292-0.478-4.069-0.644-5.022,0.568c-0.687,0.874-0.36,2.091,0.541,2.663c0.919,0.583,2.247,0.392,3.211,0.032
				c1.087-0.406,2.867-2.185,3.008-2.327c0.986,1.002,2.079,1.949,3.238,2.847c0.662,0.514,1.345,1.012,2.036,1.502
				c-0.349-0.177-0.662-0.332-0.708-0.349c-1.292-0.479-4.069-0.644-5.023,0.568c-0.687,0.874-0.36,2.091,0.541,2.662
				c0.919,0.584,2.247,0.392,3.211,0.032c0.978-0.366,2.526-1.851,2.93-2.25c0.267,0.185,0.531,0.373,0.799,0.557
				c1.284,0.884,2.57,1.76,3.804,2.658c0.435,0.316,0.852,0.644,1.271,0.97c-0.31-0.157-0.572-0.286-0.614-0.302
				c-1.292-0.479-4.069-0.644-5.022,0.568c-0.687,0.874-0.36,2.091,0.541,2.662c0.919,0.583,2.247,0.392,3.211,0.032
				c0.933-0.349,2.374-1.707,2.857-2.179c0.418,0.347,0.838,0.694,1.228,1.049c0.261,0.249,0.529,0.47,0.777,0.734
				c0.251,0.256,0.499,0.51,0.745,0.761c0.456,0.502,0.93,1.016,1.362,1.516c0.304,0.345,0.587,0.681,0.872,1.017
				c-0.429-0.32-1.284-0.929-1.361-0.971c-1.204-0.669-3.924-1.253-5.05-0.199c-0.811,0.759-0.672,2.012,0.131,2.714
				c0.82,0.716,2.162,0.728,3.169,0.518c1.109-0.232,3.065-1.652,3.308-1.831C54.992,427.969,55.445,428.517,55.864,429.041z"/>
		</g>
		<g>
			<path style="fill:#263238;" d="M727.47,407.5c-1.36-0.196-3.942-1.878-3.944-1.88c-0.027-0.018,1.625-1.365,1.739-1.438
				c1.32-0.845,4.367-1.703,5.721-0.587c0.976,0.804,0.907,2.237,0.045,3.091C730.151,407.557,728.629,407.667,727.47,407.5z"/>
			<path style="fill:#263238;" d="M702.297,394.687c-0.032,0,0.603-2.035,0.657-2.159c0.634-1.433,2.702-3.829,4.448-3.646
				c1.257,0.133,1.991,1.365,1.743,2.553c-0.253,1.213-1.463,2.144-2.521,2.644C705.381,394.666,702.299,394.687,702.297,394.687z"
				/>
			<path style="fill:#263238;" d="M699.007,429.041c-0.6,0.747-1.146,1.45-1.636,2.096h-1.237c0.622-0.798,1.347-1.701,2.167-2.676
				c0.476-0.569,0.996-1.168,1.536-1.778c-0.123-0.149-0.82-1.005-1.371-1.885c-1.104,0.369-3.359,0.271-3.649,0.256
				c-0.085,0.726-0.16,1.433-0.221,2.101c-0.141,1.51-0.228,2.852-0.284,3.982h-1.004c0.082-1.154,0.201-2.528,0.379-4.076
				c0.083-0.738,0.187-1.524,0.301-2.331c-0.284-0.086-2.597-0.808-3.446-1.56c-0.77-0.682-1.562-1.765-1.477-2.851
				c0.083-1.063,1.005-1.923,2.098-1.726c1.518,0.274,2.674,2.805,2.857,4.17c0.011,0.081,0.03,0.967,0.033,1.527
				c0.048-0.329,0.092-0.65,0.145-0.988c0.102-0.67,0.223-1.335,0.351-2.052c0.074-0.344,0.149-0.691,0.224-1.042
				c0.067-0.349,0.183-0.71,0.274-1.069c0.228-0.827,0.499-1.655,0.791-2.482c-0.586-0.091-2.664-0.443-3.532-1.003
				c-0.865-0.557-1.811-1.508-1.892-2.594c-0.079-1.063,0.702-2.053,1.813-2.024c1.542,0.041,3.068,2.367,3.455,3.689
				c0.024,0.082,0.196,1.062,0.279,1.602c0.179-0.496,0.356-0.992,0.554-1.488c0.57-1.432,1.192-2.863,1.807-4.294
				c0.188-0.438,0.371-0.877,0.555-1.316c-0.209-0.03-2.688-0.395-3.66-1.022c-0.865-0.557-1.811-1.508-1.892-2.594
				c-0.079-1.063,0.702-2.053,1.813-2.024c1.542,0.041,3.068,2.367,3.455,3.689c0.029,0.1,0.274,1.51,0.318,1.871
				c0.405-0.966,0.801-1.933,1.151-2.901c0.486-1.336,0.889-2.674,1.183-3.998c-0.097-0.014-2.686-0.383-3.682-1.026
				c-0.865-0.558-1.811-1.508-1.892-2.594c-0.079-1.063,0.702-2.053,1.813-2.024c1.542,0.041,3.068,2.367,3.455,3.689
				c0.026,0.087,0.213,1.161,0.29,1.674c0.048,0.001,0.04,0.001,0.088,0.002c0.299-1.423,0.408-2.839,0.446-4.169
				c0.023-0.771,0.002-1.508-0.034-2.226c-0.489-0.019-2.724-0.133-3.684-0.612c-0.921-0.459-1.966-1.3-2.166-2.371
				c-0.196-1.048,0.472-2.118,1.579-2.21c1.537-0.129,3.309,2.016,3.839,3.287c0.029,0.069,0.244,0.804,0.394,1.342
				c-0.022-0.323-0.038-0.658-0.064-0.967c-0.097-1.163-0.258-2.221-0.408-3.157c-0.09-0.532-0.181-1.011-0.271-1.458
				c-0.47-0.269-2.351-1.379-2.971-2.231c-0.605-0.832-1.145-2.06-0.829-3.102c0.309-1.021,1.395-1.662,2.42-1.234
				c1.424,0.594,2.008,3.314,1.893,4.687c-0.01,0.119-0.379,1.956-0.404,1.942c0,0-0.023-0.013-0.029-0.016
				c0.096,0.429,0.193,0.889,0.29,1.395c0.171,0.935,0.355,1.993,0.478,3.158c0.126,1.164,0.23,2.432,0.219,3.777
				c-0.009,1.349-0.088,2.767-0.358,4.217c-0.003,0.016-0.008,0.033-0.011,0.049c0.211-0.4,0.837-1.498,0.895-1.577
				c0.813-1.112,3.038-2.782,4.502-2.297c1.055,0.35,1.453,1.546,1.018,2.519c-0.445,0.994-1.658,1.567-2.661,1.798
				c-1.131,0.26-3.596-0.241-3.792-0.281c-0.27,1.379-0.659,2.773-1.13,4.161c-0.268,0.794-0.564,1.586-0.87,2.375
				c0.193-0.34,0.369-0.642,0.398-0.682c0.813-1.112,3.038-2.782,4.502-2.297c1.055,0.35,1.454,1.546,1.018,2.519
				c-0.445,0.994-1.658,1.567-2.661,1.798c-1.017,0.234-3.128-0.151-3.685-0.26c-0.121,0.302-0.238,0.604-0.359,0.906
				c-0.584,1.446-1.172,2.886-1.706,4.316c-0.189,0.504-0.356,1.007-0.525,1.51c0.172-0.302,0.32-0.554,0.346-0.59
				c0.813-1.112,3.038-2.782,4.502-2.297c1.055,0.349,1.454,1.546,1.018,2.519c-0.445,0.994-1.658,1.567-2.66,1.797
				c-0.971,0.224-2.922-0.114-3.585-0.241c-0.157,0.52-0.316,1.041-0.445,1.552c-0.08,0.351-0.182,0.684-0.243,1.041
				c-0.068,0.352-0.135,0.701-0.202,1.046c-0.104,0.67-0.215,1.36-0.3,2.016c-0.063,0.456-0.114,0.891-0.166,1.33
				c0.182-0.504,0.558-1.483,0.599-1.561c0.422-0.812,1.424-1.959,2.494-2.564c0.062-0.12,0.133-0.235,0.217-0.341
				c0.655-0.841,1.899-1.05,2.702-0.282c1.115,1.066,0.683,3.814,0.082,5.054c-0.035,0.073-0.509,0.823-0.815,1.292
				c0.222-0.248,0.434-0.491,0.666-0.744c0.455-0.503,0.923-0.991,1.425-1.518c0.251-0.246,0.505-0.494,0.762-0.745
				c0.249-0.254,0.544-0.491,0.818-0.74c0.647-0.564,1.33-1.105,2.029-1.634c-0.439-0.399-1.977-1.839-2.393-2.785
				c-0.413-0.942-0.678-2.257-0.147-3.207c0.52-0.931,1.718-1.325,2.628-0.688c1.263,0.885,1.253,3.667,0.847,4.983
				c-0.025,0.082-0.423,0.994-0.651,1.491c0.423-0.315,0.844-0.631,1.283-0.936c1.266-0.88,2.574-1.73,3.876-2.585
				c0.399-0.261,0.793-0.527,1.189-0.791c-0.158-0.14-2.024-1.812-2.489-2.872c-0.414-0.942-0.679-2.257-0.147-3.207
				c0.52-0.93,1.718-1.325,2.628-0.688c1.264,0.885,1.253,3.667,0.847,4.983c-0.031,0.099-0.605,1.41-0.767,1.736
				c0.871-0.582,1.734-1.17,2.561-1.785c1.142-0.846,2.216-1.74,3.193-2.682c-0.074-0.065-2.029-1.801-2.505-2.887
				c-0.413-0.942-0.679-2.257-0.147-3.207c0.52-0.931,1.718-1.325,2.628-0.688c1.264,0.885,1.253,3.667,0.847,4.983
				c-0.027,0.087-0.463,1.086-0.682,1.557c0.04,0.028,0.032,0.023,0.072,0.05c1.034-1.022,1.907-2.143,2.672-3.232
				c0.444-0.63,0.834-1.257,1.199-1.875c-0.397-0.286-2.198-1.613-2.735-2.543c-0.514-0.891-0.922-2.169-0.498-3.172
				c0.415-0.982,1.562-1.506,2.537-0.972c1.353,0.741,1.648,3.507,1.389,4.86c-0.014,0.073-0.24,0.805-0.412,1.336
				c0.16-0.282,0.331-0.569,0.48-0.842c0.56-1.023,1.01-1.995,1.401-2.858c0.219-0.493,0.406-0.943,0.578-1.366
				c-0.243-0.484-1.2-2.447-1.247-3.5c-0.046-1.028,0.181-2.35,1.019-3.045c0.821-0.68,2.08-0.617,2.699,0.306
				c0.86,1.281-0.154,3.872-1.007,4.953c-0.074,0.094-1.395,1.423-1.408,1.397c0,0-0.012-0.024-0.015-0.029
				c-0.157,0.41-0.33,0.848-0.528,1.323c-0.373,0.874-0.803,1.858-1.343,2.897c-0.537,1.04-1.15,2.155-1.901,3.271
				c-0.752,1.12-1.599,2.259-2.625,3.32c-0.012,0.012-0.025,0.023-0.037,0.035c0.396-0.217,1.525-0.787,1.616-0.821
				c1.292-0.478,4.069-0.644,5.022,0.568c0.687,0.874,0.36,2.091-0.541,2.663c-0.919,0.583-2.247,0.392-3.211,0.032
				c-1.087-0.406-2.867-2.185-3.008-2.327c-0.986,1.002-2.079,1.949-3.238,2.847c-0.662,0.514-1.345,1.012-2.036,1.502
				c0.349-0.177,0.662-0.332,0.708-0.349c1.292-0.479,4.069-0.644,5.023,0.568c0.687,0.874,0.36,2.091-0.541,2.662
				c-0.919,0.584-2.247,0.392-3.211,0.032c-0.978-0.366-2.526-1.851-2.93-2.25c-0.267,0.185-0.532,0.373-0.799,0.557
				c-1.284,0.884-2.57,1.76-3.804,2.658c-0.435,0.316-0.852,0.644-1.271,0.97c0.31-0.157,0.572-0.286,0.614-0.302
				c1.292-0.479,4.068-0.644,5.022,0.568c0.687,0.874,0.36,2.091-0.541,2.662c-0.919,0.583-2.247,0.392-3.211,0.032
				c-0.933-0.349-2.374-1.707-2.857-2.179c-0.418,0.347-0.838,0.694-1.228,1.049c-0.261,0.249-0.529,0.47-0.777,0.734
				c-0.251,0.256-0.499,0.51-0.745,0.761c-0.456,0.502-0.93,1.016-1.362,1.516c-0.304,0.345-0.586,0.681-0.872,1.017
				c0.429-0.32,1.284-0.929,1.361-0.971c1.204-0.669,3.924-1.253,5.05-0.199c0.811,0.759,0.672,2.012-0.131,2.714
				c-0.82,0.716-2.162,0.728-3.169,0.518c-1.109-0.232-3.065-1.652-3.308-1.831C699.879,427.969,699.426,428.517,699.007,429.041z"
				/>
		</g>
		<g>
			<path style="fill:#263238;" d="M466.05,410.702c-1.219-0.176-3.533-1.683-3.534-1.684c-0.024-0.016,1.457-1.223,1.559-1.289
				c1.183-0.758,3.913-1.526,5.127-0.526c0.874,0.721,0.813,2.005,0.04,2.77C468.452,410.753,467.088,410.851,466.05,410.702z"/>
			<path style="fill:#263238;" d="M444.034,399.219c-0.029,0,0.54-1.824,0.589-1.935c0.568-1.284,2.422-3.432,3.986-3.267
				c1.127,0.119,1.784,1.224,1.562,2.288c-0.227,1.087-1.311,1.921-2.259,2.369C446.797,399.201,444.036,399.219,444.034,399.219z"
				/>
			<path style="fill:#263238;" d="M441.493,429.191c-0.538,0.669-1.027,1.299-1.466,1.879h-1.108
				c0.558-0.715,1.207-1.524,1.941-2.398c0.427-0.51,0.893-1.047,1.377-1.593c-0.111-0.134-0.735-0.9-1.228-1.689
				c-0.989,0.331-3.01,0.243-3.271,0.23c-0.076,0.651-0.144,1.284-0.198,1.883c-0.126,1.353-0.204,2.556-0.254,3.569h-0.9
				c0.074-1.034,0.18-2.265,0.339-3.653c0.074-0.661,0.167-1.366,0.269-2.089c-0.254-0.078-2.327-0.724-3.088-1.398
				c-0.69-0.611-1.4-1.582-1.324-2.555c0.074-0.953,0.9-1.723,1.88-1.546c1.36,0.245,2.396,2.513,2.56,3.737
				c0.01,0.072,0.027,0.867,0.03,1.369c0.043-0.295,0.082-0.582,0.13-0.885c0.091-0.6,0.2-1.197,0.315-1.839
				c0.066-0.308,0.133-0.619,0.201-0.934c0.06-0.313,0.164-0.636,0.245-0.958c0.204-0.742,0.447-1.483,0.709-2.225
				c-0.526-0.081-2.387-0.397-3.166-0.899c-0.775-0.5-1.623-1.352-1.696-2.325c-0.071-0.953,0.629-1.84,1.624-1.814
				c1.382,0.037,2.749,2.121,3.096,3.306c0.022,0.074,0.175,0.952,0.25,1.436c0.161-0.445,0.319-0.889,0.496-1.333
				c0.511-1.283,1.069-2.566,1.619-3.848c0.169-0.393,0.332-0.786,0.497-1.179c-0.187-0.027-2.408-0.354-3.28-0.916
				c-0.775-0.5-1.623-1.352-1.696-2.325c-0.071-0.953,0.629-1.84,1.624-1.813c1.382,0.037,2.749,2.121,3.096,3.306
				c0.026,0.089,0.245,1.353,0.285,1.677c0.363-0.866,0.717-1.732,1.032-2.6c0.436-1.197,0.797-2.396,1.061-3.583
				c-0.087-0.012-2.407-0.343-3.3-0.919c-0.775-0.5-1.623-1.352-1.696-2.325c-0.071-0.953,0.629-1.84,1.624-1.813
				c1.382,0.037,2.749,2.121,3.096,3.306c0.023,0.078,0.191,1.04,0.26,1.5c0.043,0.001,0.036,0.001,0.079,0.002
				c0.267-1.275,0.366-2.544,0.4-3.736c0.021-0.691,0.002-1.352-0.031-1.995c-0.438-0.017-2.441-0.119-3.302-0.548
				c-0.825-0.412-1.762-1.165-1.941-2.124c-0.175-0.939,0.423-1.898,1.415-1.981c1.378-0.115,2.965,1.807,3.441,2.946
				c0.026,0.062,0.219,0.721,0.353,1.203c-0.019-0.29-0.034-0.59-0.057-0.867c-0.087-1.042-0.231-1.99-0.366-2.829
				c-0.08-0.477-0.162-0.906-0.243-1.306c-0.421-0.242-2.107-1.236-2.663-2c-0.542-0.745-1.026-1.846-0.743-2.78
				c0.277-0.915,1.25-1.49,2.169-1.106c1.276,0.533,1.799,2.97,1.696,4.2c-0.009,0.106-0.339,1.753-0.362,1.74
				c0,0-0.021-0.012-0.026-0.014c0.086,0.384,0.173,0.797,0.26,1.25c0.153,0.838,0.318,1.786,0.428,2.83
				c0.113,1.043,0.206,2.179,0.196,3.385c-0.008,1.208-0.079,2.479-0.32,3.779c-0.003,0.015-0.008,0.03-0.01,0.044
				c0.189-0.358,0.75-1.342,0.802-1.413c0.729-0.996,2.723-2.493,4.035-2.059c0.945,0.313,1.302,1.385,0.912,2.257
				c-0.399,0.891-1.486,1.404-2.384,1.611c-1.013,0.233-3.223-0.216-3.398-0.252c-0.242,1.236-0.59,2.485-1.012,3.729
				c-0.241,0.712-0.505,1.421-0.779,2.129c0.173-0.305,0.33-0.575,0.357-0.611c0.729-0.996,2.723-2.493,4.035-2.058
				c0.945,0.313,1.302,1.385,0.912,2.257c-0.399,0.891-1.486,1.404-2.384,1.611c-0.912,0.21-2.803-0.135-3.302-0.233
				c-0.108,0.27-0.213,0.542-0.322,0.812c-0.523,1.296-1.051,2.586-1.529,3.868c-0.169,0.452-0.319,0.903-0.47,1.353
				c0.154-0.27,0.286-0.497,0.31-0.529c0.729-0.996,2.723-2.493,4.035-2.058c0.945,0.313,1.303,1.385,0.912,2.257
				c-0.398,0.891-1.486,1.404-2.384,1.611c-0.87,0.2-2.618-0.103-3.212-0.216c-0.141,0.466-0.283,0.933-0.399,1.391
				c-0.072,0.315-0.163,0.612-0.218,0.932c-0.061,0.316-0.121,0.628-0.181,0.938c-0.093,0.6-0.193,1.219-0.269,1.807
				c-0.056,0.409-0.102,0.799-0.149,1.192c0.163-0.451,0.5-1.329,0.537-1.399c0.378-0.728,1.276-1.756,2.235-2.298
				c0.055-0.108,0.12-0.21,0.194-0.306c0.587-0.754,1.702-0.941,2.421-0.252c0.999,0.955,0.612,3.418,0.074,4.529
				c-0.032,0.065-0.456,0.738-0.73,1.158c0.199-0.222,0.389-0.44,0.597-0.667c0.407-0.45,0.827-0.888,1.277-1.36
				c0.225-0.22,0.453-0.443,0.683-0.668c0.223-0.228,0.488-0.44,0.733-0.663c0.58-0.506,1.191-0.99,1.819-1.464
				c-0.393-0.358-1.772-1.648-2.144-2.496c-0.371-0.844-0.608-2.023-0.132-2.874c0.466-0.834,1.539-1.188,2.355-0.616
				c1.132,0.793,1.123,3.286,0.759,4.465c-0.023,0.074-0.379,0.891-0.583,1.336c0.379-0.282,0.756-0.566,1.149-0.839
				c1.134-0.788,2.307-1.55,3.473-2.316c0.358-0.234,0.711-0.472,1.065-0.709c-0.141-0.126-1.813-1.624-2.23-2.574
				c-0.371-0.844-0.608-2.023-0.132-2.874c0.466-0.834,1.539-1.188,2.355-0.617c1.132,0.793,1.123,3.286,0.759,4.466
				c-0.028,0.089-0.542,1.264-0.687,1.556c0.781-0.522,1.554-1.049,2.295-1.599c1.024-0.758,1.986-1.559,2.861-2.403
				c-0.066-0.058-1.818-1.614-2.245-2.587c-0.371-0.844-0.608-2.023-0.132-2.874c0.466-0.834,1.539-1.188,2.355-0.617
				c1.132,0.793,1.123,3.286,0.759,4.465c-0.024,0.078-0.415,0.974-0.611,1.395c0.036,0.025,0.029,0.02,0.065,0.045
				c0.927-0.916,1.709-1.92,2.395-2.896c0.398-0.564,0.747-1.126,1.075-1.68c-0.356-0.256-1.97-1.446-2.451-2.279
				c-0.461-0.798-0.826-1.944-0.447-2.842c0.372-0.88,1.4-1.35,2.273-0.871c1.212,0.664,1.477,3.143,1.245,4.355
				c-0.013,0.066-0.215,0.722-0.369,1.198c0.144-0.252,0.297-0.51,0.43-0.755c0.502-0.917,0.905-1.788,1.256-2.561
				c0.196-0.442,0.364-0.845,0.518-1.224c-0.218-0.434-1.075-2.193-1.118-3.137c-0.041-0.921,0.162-2.106,0.913-2.729
				c0.736-0.61,1.864-0.553,2.419,0.274c0.77,1.148-0.138,3.47-0.902,4.439c-0.066,0.084-1.25,1.275-1.262,1.252
				c0,0-0.011-0.021-0.013-0.026c-0.141,0.368-0.295,0.76-0.473,1.186c-0.335,0.783-0.72,1.665-1.204,2.596
				c-0.481,0.932-1.03,1.931-1.704,2.931c-0.674,1.003-1.433,2.025-2.352,2.975c-0.01,0.011-0.023,0.021-0.033,0.031
				c0.355-0.195,1.366-0.706,1.448-0.736c1.158-0.429,3.646-0.577,4.501,0.509c0.616,0.783,0.323,1.874-0.484,2.386
				c-0.824,0.523-2.014,0.351-2.877,0.028c-0.974-0.364-2.569-1.958-2.695-2.085c-0.883,0.897-1.863,1.747-2.901,2.552
				c-0.593,0.461-1.205,0.907-1.824,1.346c0.313-0.158,0.593-0.298,0.634-0.313c1.158-0.429,3.646-0.577,4.501,0.509
				c0.616,0.783,0.322,1.874-0.484,2.386c-0.824,0.523-2.014,0.352-2.877,0.029c-0.876-0.328-2.263-1.659-2.626-2.016
				c-0.239,0.166-0.476,0.334-0.716,0.499c-1.151,0.792-2.303,1.577-3.409,2.382c-0.39,0.283-0.764,0.577-1.139,0.869
				c0.278-0.14,0.513-0.256,0.55-0.27c1.157-0.429,3.646-0.577,4.501,0.509c0.616,0.783,0.322,1.874-0.484,2.386
				c-0.824,0.523-2.014,0.351-2.877,0.028c-0.836-0.313-2.128-1.53-2.56-1.952c-0.375,0.311-0.751,0.622-1.1,0.94
				c-0.234,0.223-0.474,0.421-0.696,0.658c-0.225,0.23-0.447,0.457-0.668,0.682c-0.409,0.449-0.833,0.91-1.221,1.359
				c-0.272,0.31-0.526,0.61-0.782,0.912c0.385-0.287,1.15-0.832,1.22-0.87c1.079-0.599,3.516-1.123,4.526-0.179
				c0.727,0.68,0.602,1.803-0.118,2.432c-0.735,0.642-1.937,0.652-2.84,0.464c-0.994-0.208-2.746-1.481-2.964-1.641
				C442.275,428.231,441.869,428.722,441.493,429.191z"/>
		</g>
	</g>
</g>
<g id="Paint">
	<g>
		<g>
			<path style="fill:#92E3A9;" d="M187.277,257.66c0,0-0.973,3.613-4.497,7.725c-3.524,4.112-4.407,12.809,6.416,16.636
				c10.823,3.827,8.132,22.113-4.555,20.976c-12.687-1.137-21.416-20.357-32.779-14.39c-11.363,5.966-6.607,24.025-15.632,21.138
				c-9.025-2.886-13.414-11.135-20.019-7.261c-6.606,3.874-8.356,20.362,18.562,27.567c26.919,7.204,17.816-31.447,26.154-30.751
				c8.338,0.696,9.939,12.525,23.329,14.945c13.39,2.421,24.828-17.704,22.115-28.283c-2.713-10.578-17.076-9.386-19.888-14.52
				c-2.812-5.134,4.862-11.963,4.862-11.963S190.58,255.723,187.277,257.66z"/>
			<path style="fill:#263238;stroke:#263238;stroke-linecap:round;stroke-linejoin:round;stroke-miterlimit:10;" d="
				M187.989,248.414l-2.526,8.206c-0.443,1.44,0.142,2.998,1.424,3.789l0,0c1.497,0.924,3.456,0.515,4.458-0.931l5.669-8.178
				L187.989,248.414z"/>
			<path style="fill:#FFFFFF;stroke:#263238;stroke-linecap:round;stroke-linejoin:round;stroke-miterlimit:10;" d="
				M201.408,199.098l21.376,12.55c0,0-10.874,19.046-14.668,28.054c-3.794,9.008-9.541,15.621-14.798,15.163
				c-5.256-0.458-8.943-7.423-7.92-13.759c1.022-6.335,11.095-21.221,12.853-28.087C200.01,206.152,201.408,199.098,201.408,199.098
				z"/>
			<path style="fill:#263238;" d="M201.408,199.098c0,0-1.398,7.055-3.157,13.921c-0.531,2.073-1.824,4.882-3.393,7.96
				c3.484,2.86,9.634,7.513,16.811,11.21c4.695-9.296,11.115-20.542,11.115-20.542L201.408,199.098z"/>
			<path style="fill:#92E3A9;" d="M203.617,267.577c-0.831,1.589-2.793,2.204-4.382,1.373c-1.589-0.831-2.204-2.793-1.373-4.382
				c0.831-1.589,2.792-2.204,4.382-1.373C203.834,264.026,204.448,265.988,203.617,267.577z"/>
			<path style="fill:#92E3A9;" d="M177.113,287.611c-0.727,1.391-2.444,1.928-3.834,1.201c-1.39-0.727-1.928-2.443-1.201-3.834
				c0.727-1.39,2.444-1.928,3.834-1.201C177.303,284.504,177.84,286.221,177.113,287.611z"/>
			<path style="fill:#92E3A9;" d="M178.544,333.929c-0.363,0.695-1.222,0.964-1.917,0.601c-0.695-0.363-0.964-1.222-0.601-1.917
				c0.363-0.695,1.222-0.964,1.917-0.601C178.639,332.376,178.908,333.234,178.544,333.929z"/>
		</g>
		<g>
			<path style="fill:none;stroke:#263238;stroke-linecap:round;stroke-linejoin:round;stroke-miterlimit:10;" d="M126.711,320.714
				c3.022,1.546,6.815,2.92,11.136,3.28c11.133,0.929,11.975-5.358,13.591-14.298"/>
			<path style="fill:none;stroke:#263238;stroke-linecap:round;stroke-linejoin:round;stroke-miterlimit:10;" d="M119.095,315.413
				c0,0,0.927,0.931,2.606,2.183"/>
			<path style="fill:none;stroke:#263238;stroke-linecap:round;stroke-linejoin:round;stroke-miterlimit:10;" d="M182.208,310.496
				c0,0,12.077,4.343,18.12-10.095"/>
			<path style="fill:none;stroke:#263238;stroke-linecap:round;stroke-linejoin:round;stroke-miterlimit:10;" d="M190.364,251.208
				c-1.283-0.72-2.162-1.785-2.375-2.794"/>
			<path style="fill:none;stroke:#263238;stroke-linecap:round;stroke-linejoin:round;stroke-miterlimit:10;" d="M207.47,234.766
				c0,0-6.04,14.413-10.456,16.535c-1.104,0.531-2.189,0.763-3.203,0.775"/>
		</g>
	</g>
</g>
<g id="Earth_Globe">
	<g>
		<path style="fill:none;stroke:#263238;stroke-width:4;stroke-linecap:round;stroke-linejoin:round;stroke-miterlimit:10;" d="
			M574.637,416.009c2.601,0.403,5.266,0.611,7.98,0.611c26.553,0,48.43-19.992,51.407-45.741c0.23-1.973,0.347-3.978,0.347-6.01
			c0-16.258-7.494-30.764-19.218-40.252c-6.58-5.325-14.49-9.069-23.156-10.655L574.637,416.009z"/>
		<path style="fill:#92E3A9;stroke:#263238;stroke-linecap:round;stroke-linejoin:round;stroke-miterlimit:10;" d="M610.647,330.192
			c-7.659-6.198-17.408-9.909-28.031-9.909c-1.882,0-3.737,0.117-5.558,0.342c-3.97,0.495-7.781,1.51-11.355,2.978
			c-0.223,0.091-0.444,0.183-0.665,0.279c-0.246,0.104-0.49,0.213-0.731,0.32c-1.312,0.594-2.59,1.246-3.828,1.956l-2.486,1.535
			c-0.193,0.129-0.386,0.259-0.576,0.391c-4.833,3.316-8.978,7.56-12.18,12.474c-4.556,6.992-7.205,15.341-7.205,24.311
			c0,24.624,19.961,44.584,44.584,44.584c22.876,0,41.722-17.223,44.287-39.406c0.198-1.7,0.299-3.427,0.299-5.178
			C627.203,350.863,620.747,338.366,610.647,330.192z M588.852,329.02c-0.155,0.259-3.161,1.035-3.524,1.088
			c-0.363,0.051-0.467,1.814-0.571,2.022c-0.104,0.206-2.23,0.725-2.489,0.725c-0.259,0-1.969,2.436-1.969,2.436
			s0.104,0.984,0.051,1.659c-0.051,0.672-1.088,1.657-1.502,2.019c-0.416,0.363-1.814-0.984-1.814-0.984l-0.675-1.502l-0.621-4.303
			c0,0,0.363-0.829,0.725-1.139c0.363-0.312,0.675-0.52,1.038-0.779c0.363-0.259,0.205-0.672,0.259-0.934
			c0.051-0.259-0.467-0.622-0.467-0.622s-0.776-0.104-0.776-0.517c0-0.416,0.88-0.83,0.88-0.83s-0.155-0.467-0.571-0.518
			c-0.413-0.053,1.142-3.161,1.038-3.422c-0.104-0.259-1.038-0.517-1.192-0.931c-0.155-0.416,1.192-0.829,1.192-0.829
			s0.259-0.208,0.155-0.416c-0.104-0.206,1.814-0.83,1.814-0.83s2.798-0.101,3.369,0.053c0.571,0.155,1.243,0.155,1.659,0.467
			c0.414,0.31,1.814,1.139,2.849,2.073C588.748,323.941,589.007,328.761,588.852,329.02z"/>
		
			<path style="fill:#FFFFFF;stroke:#263238;stroke-width:0.5;stroke-linecap:round;stroke-linejoin:round;stroke-miterlimit:10;" d="
			M558.183,370.636l-1.416-1.167l-1.811,0.025l-0.797,0.771l0.373,0.271l1.017-0.644l2.085,1.613l2.385,0.15l0.322-0.497
			L558.183,370.636z M562.204,371.209l-1.266,0.271l0.348,1.218l-1.192-0.076l-0.271,0.845l2.184-0.099l0.297-0.596l1.192,0.198
			l0.175-0.868L562.204,371.209z M614.016,359.133l-1.114-0.048l-0.307,0.474l0.995,0.378l0.259,0.497l0.332,0.19L614.016,359.133z
			 M611.033,356.883l-0.855-0.284l0.261,1.256l0.071,0.545l-0.119,0.165l0.594,0.19l0.449-0.594L611.033,356.883z M610.701,355.107
			l-0.355,0.332l0.165,0.639l0.545,0.117L610.701,355.107z M600.928,344.153l-1.606-0.467l-0.467,1.088l0.622,0.934l-0.571,0.83
			c0,0,0.312,0.312,0.467,0.467c0.155,0.155,1.606-0.467,1.606-0.467L600.928,344.153z M604.452,345.708l-0.88-2.281l-1.296-0.725
			l0.312-1.347l-1.4-0.259l0.571-1.038l-1.246,0.157l-0.568,1.243l0.622,1.606l0.517-0.051l1.451,1.555l-0.104,0.931l-0.672-0.101
			l-0.157,1.606l0.987,0.309l-1.088,0.624l0.413,1.19l1.606-1.19l1.555,0.101l0.52-1.915L604.452,345.708z M625.805,366.023
			l0.053,2.281l1.045,1.743c0.198-1.7,0.299-3.427,0.299-5.178c0-14.007-6.457-26.503-16.556-34.677l-0.079,0.951l1.969,1.608
			l1.038,3.265l-2.902-1.659l-0.52-1.4c0,0,0.52-0.517,0.571-0.672c0.053-0.155-2.852-2.644-2.852-2.644l-4.145-1.504l-0.467,1.608
			l1.867,5.388l-1.088,2.075l1.555,3.678l1.139,0.259l0.726-1.451l2.385,3.732l0.984-0.467l-0.984-2.02l0.413-1.608l-1.918-1.865
			l-0.363-4.199l1.038,0.155l1.243,4.457l1.608,2.022l1.814-1.139l0.31,1.451l-0.88,0.363c0,0,0.88,1.657,0.933,1.814
			c0.051,0.155-0.779,0.726-0.779,0.726l-0.051,1.918l-3.991,0.363l-1.088-3.526l-1.038,0.416l0.776,3.11l-0.984,0.259l-0.414,1.71
			l-3.577,2.643l1.246,0.984l0.363,3.524l-4.148-0.155l-0.208,2.798l-0.155,1.451l1.814,0.571c0,0,0,0.467,0.155,0.622
			c0.157,0.155,1.867,0.208,1.867,0.208l0.517-0.416h0.883l1.035-1.502l-0.517-1.142l1.865-1.035l0.053-1.296l1.347-0.051
			c0,0,0.776-0.624,0.934-0.675c0.155-0.051,2.02,1.4,2.02,1.4l1.296,1.347l0.517,0.931l0.52,1.088l0.104,0.779l0.672-0.414
			l-0.31-1.246l0.726-0.31l-0.053-0.52l-0.88-0.568l-1.451-1.814l-1.192-1.35l0.571-0.672l0.88,0.363l2.902,2.902l0.312,2.123
			l0.205,1.555l0.261,0.934l0.672-0.725c0,0,0.517-0.208,0.517-0.414c0-0.208-0.827-1.35-0.827-1.35l0.31-0.984h0.726l0.312,0.675
			l0.726-1.038l-0.467-1.294l0.363-2.852l0.934,0.155l0.102,1.296l0.52,0.051l0.051-1.502l0.934-0.312l0.363,0.52l-0.571,1.139
			l1.71,2.539c0,0,0.259,0.675,0.104,0.83c-0.155,0.155-0.31,0.413-0.467,0.363c-0.155-0.051-0.776-0.312-0.776-0.312l-0.467-0.464
			l-0.984,0.155l-0.571,0.571c0,0-0.467,0.259-0.672,0.363c-0.208,0.101-0.52,0.518-0.52,0.518l-0.051,0.621l0.414,1.401v0.413
			h0.779l0.518,0.518c0,0,0.622,0.208,0.776,0.261c0.157,0.051,0.726-0.725,0.726-0.725l0.363,0.672l-0.568,3.318
			c0,0-1.088,0.051-1.246,0.051c-0.155,0-1.347,0.571-1.347,0.571l-2.073-2.022l-0.726,0.208l-0.312,1.71l-0.155,0.467
			c0,0-1.398-1.038-1.555-1.038c-0.155,0-0.672-1.347-0.672-1.347l-2.435-1.243l0.622-0.83l-0.259-1.763l-1.35,0.312l-6.373,1.192
			l-0.883-0.363l-1.969,2.073l-0.88,0.155l-0.104,2.385l-2.281,1.71l-1.659,2.593l-0.934,1.606l0.053,5.596l3.212,4.199l7.154-0.104
			l1.347,0.725l0.984,0.208l-1.088,3.006c0,0,0.776,3.577,1.139,4.041c0.363,0.467-3.937,5.442-3.937,5.442
			s-0.518,1.867-0.518,2.022c0,0.157,0,0.416,0,0.416l-3.214,4.663l0.776-0.051l4.511-1.555l1.451-0.776c0,0,1.71-2.489,1.865-2.539
			c0.155-0.053,3.006-2.643,3.006-2.643l1.659-0.779l1.035-1.555l1.763-3.679l4.561-4.353l1.398-2.177l0.83-2.697l-1.814,0.621
			v-6.581l-0.83-4.612l0.208-1.4l0.726-0.051l0.571,0.363l0.363,6.114l-0.104,3.836l0.829,1.088l2.54-6.375l-0.776-2.849
			l0.102-2.644L625.805,366.023z M593.464,333.01v-1.192h-1.659l-0.155,0.675l-2.177-0.363l-0.413,0.931l1.398,0.726l-0.622,0.675
			l2.489,0.984l2.177-1.606L593.464,333.01z M574.341,348.301l-1.763,0.517l-0.622-0.621l0.104-0.984l-1.451,0.622l-1.296,2.331
			l0.88,1.038l1.504-1.088l-0.208,1.19l0.88,0.261l0.416-0.987l0.518,0.934l1.659-1.71L574.341,348.301z M561.436,335.859
			l-0.52,0.779h0.622l0.987-0.622L561.436,335.859z M562.42,333.424l-1.297,0.104l-1.347,1.451l0.984,0.779l1.139-0.883l0.467,0.52
			l0.675-0.52L562.42,333.424z M570.764,324.667l-0.312,0.517l1.088,0.776l0.83-1.139L570.764,324.667z M570.764,329.641
			l1.088-0.726v-1.192l-0.88-0.467l0.206-0.672l-1.918-0.52l0.312-1.398l-1.763,0.672l-2.278,2.435l0.622,0.624l1.451-0.261
			l0.931,1.142c0,0-0.363,2.331-0.518,2.435c-0.155,0.104-1.035,0.934-1.243,1.088c-0.208,0.155-0.934,0.571-0.934,0.571
			l-1.71,0.104l-0.363,0.776l2.385-0.104l1.139,3.06h1.4l-0.52-1.555l1.088-0.157l0.726-1.294l-0.568-0.779
			c0,0,0.205-1.035,0.259-1.243c0.051-0.208,0.83-0.104,0.83-0.104l0.363,1.4l1.192-1.296l0.464-1.192L570.764,329.641z
			 M560.398,327.619l0.081-1.461l-2.486,1.535l0.332,0.705l-0.675,0.776l0.053,0.779l1.088-0.571l1.088,0.414
			c0,0,1.347-0.31,1.502-0.363c0.155-0.051,0.155-1.865,0.155-1.865L560.398,327.619z M583.669,387.326l-1.918-0.934l-6.583-2.59
			c0,0,0.157-1.296,0.363-1.347c0.208-0.053-3.265-2.385-3.265-2.385l-1.969,0.155l-1.139-0.934l-2.126-1.347l-0.88,0.467
			c0,0-0.726-0.726-0.934-0.776c-0.208-0.053-0.83-0.053-0.83-0.053l-0.829-0.467l-0.88,0.363l0.104,1.296l-0.779-0.155l0.104-2.022
			l-0.776,0.053c0,0-0.416,0.464-0.467,0.622c-0.053,0.155-1.038,0.051-1.038,0.051l-0.568,1.192l-1.192-0.622l-1.35,0.414
			l-1.035-1.139l-0.416-2.852l-2.382,0.157l0.414-3.836l-1.761,0.104l-0.208,1.451l-0.726,0.726l-1.608,0.155l-0.984-2.126
			l-0.31-4.353l1.918-1.659l0.776,0.312l1.037,0.414v-1.035l1.657-0.259l0.624,0.414l0.726-0.208l0.776,1.037l-0.051,1.243
			l0.621,1.401l0.726-0.208l-1.192-4.353l3.577-2.849c0,0-0.104-1.246-0.157-1.4c-0.051-0.155,0.571-2.644,0.571-2.644l1.606-0.675
			l1.142-0.672v-0.416l0.259-1.243l0.984-0.726l0.675-0.571l0.931-0.464l0.725,0.363l-0.83,1.19l0.83,0.363l0.987-1.398l2.331-1.142
			l-0.829-0.776l-1.606,1.139l-0.675-1.555l0.517-1.088h-0.726l-2.694,2.022l-0.984-0.571l3.11-2.124c0,0,2.486-0.467,3.524-0.467
			c1.035,0,1.71-0.675,1.71-0.675l1.865-1.347l-0.363-1.865l-2.177-1.142c0,0,0.363-0.776,0.416-1.139
			c0.051-0.363-0.984-3.473-0.984-3.473s-2.23,2.385-2.435,2.385c-0.208,0-0.883-0.518-0.883-0.518s0.675-2.438,0.622-2.593
			c-0.051-0.155-1.347-1.502-1.71-1.555c-0.363-0.051-1.088,0.259-1.296,0.312c-0.206,0.051-0.776,2.849-0.776,2.849
			s-0.622,0.416-0.88,0.624c-0.259,0.206,0.104,2.539,0.104,2.849c0,0.312-2.177,0.83-2.177,0.83l-0.312,3.369l-1.4-0.413
			c0,0,0.52-2.801,0.053-2.852c-0.467-0.053-3.265-2.539-3.265-2.539s0.051-2.022,0.206-2.022c0.157,0,2.956-2.851,3.164-2.902
			c0.206-0.051,3.575-3.679,3.575-3.679l1.918-0.157l1.4-0.88l1.243-1.659l-1.502-0.984l-2.075,1.969l0.363-0.776l-0.31-1.555
			l2.385-1.296l0.467-1.243l-2.747,0.312l2.539-1.867l-0.284-0.472l-0.028-0.046l-0.703,0.365l-2.976,1.553l0.205,1.347l2.643-0.363
			l-1.969,0.934l-0.208,1.502l-0.88,0.934l-0.934,0.622l-2.435-0.363l-0.776,0.984l-0.883-0.31l1.505-2.593l-0.183-0.365
			c-4.833,3.316-8.978,7.56-12.18,12.474l-0.543,1.885l-0.259,0.726l-1.296,2.747l-0.208,3.473l-1.76,4.767l-0.624,6.167
			l0.363,1.555l0.053,1.918l2.073,5.65l0.83,0.413l-2.281-6.012l0.622-0.102l0.725,1.502l0.675,2.177c0,0,2.902,5.858,3.212,6.116
			c0.312,0.259,0.934,1.347,0.934,1.347l2.177-0.518l0.83,1.347l2.747,0.467l1.502,2.539l3.006,0.83l0.312-0.52l1.089,0.467
			l0.571,2.281l-0.987,2.798l1.038,1.659v1.659l0.675,0.571l2.59,2.798l3.265,1.761l5.234,10.678l2.489,2.331l2.177,1.451
			l2.694,1.142l0.104-0.726l-1.865-0.571c0,0-0.779-0.622-1.038-0.83c-0.259-0.208-0.776-0.571-0.776-0.571l-0.416-0.829
			l-0.414-0.414l-0.467-1.088l1.142-0.518l0.259-0.624l-0.883-1.347h1.555l1.142-4.095l3.473-1.969l0.205-3.524l2.54-3.422
			L583.669,387.326z M565.703,323.603l0.086,0.388c0,0,2.227-0.259,3.42-0.518c1.192-0.259,0.413-0.312,0.413-0.312
			s0.312-0.309,0.467-0.363c0.157-0.051,1.347,0,1.347,0l-1.398,1.088c0,0,0.414,0,1.035,0c0.624,0,1.088,0.053,1.088,0.053
			l0.467-0.157l0.467-0.568l0.467-0.312c0,0,1.606-0.672,2.022-0.83c0.33-0.124,1.154-1.07,1.474-1.449
			C573.088,321.12,569.277,322.135,565.703,323.603z M588.852,329.02c-0.155,0.259-3.161,1.035-3.524,1.088
			c-0.363,0.051-0.467,1.814-0.571,2.022c-0.104,0.206-2.23,0.725-2.489,0.725c-0.259,0-1.969,2.436-1.969,2.436
			s0.104,0.984,0.051,1.659c-0.051,0.672-1.088,1.657-1.502,2.019c-0.416,0.363-1.814-0.984-1.814-0.984l-0.675-1.502l-0.621-4.303
			c0,0,0.363-0.829,0.725-1.139c0.363-0.312,0.675-0.52,1.038-0.779c0.363-0.259,0.205-0.672,0.259-0.934
			c0.051-0.259-0.467-0.622-0.467-0.622s-0.776-0.104-0.776-0.517c0-0.416,0.88-0.83,0.88-0.83s-0.155-0.467-0.571-0.518
			c-0.413-0.053,1.142-3.161,1.038-3.422c-0.104-0.259-1.038-0.517-1.192-0.931c-0.155-0.416,1.192-0.829,1.192-0.829
			s0.259-0.208,0.155-0.416c-0.104-0.206,1.814-0.83,1.814-0.83s2.798-0.101,3.369,0.053c0.571,0.155,1.243,0.155,1.659,0.467
			c0.414,0.31,1.814,1.139,2.849,2.073C588.748,323.941,589.007,328.761,588.852,329.02z"/>
		<path style="fill:none;stroke:#263238;stroke-linecap:round;stroke-linejoin:round;stroke-miterlimit:10;" d="M580.515,406.926
			c0.295,0.014,0.59,0.026,0.886,0.034 M542.337,377.184c5.071,16.607,20.131,28.855,38.178,29.742 M540.539,366.477
			c0.101,2.692,0.455,5.318,1.038,7.858"/>
		<rect x="582.616" y="416.621" style="fill:#263238;" width="7.32" height="12.019"/>
		<rect x="559.552" y="428.007" style="fill:#263238;" width="53.806" height="4.114"/>
	</g>
</g>
<g id="Character">
	<g>
		
			<path style="fill:#92E3A9;stroke:#263238;stroke-width:0.5;stroke-linecap:round;stroke-linejoin:round;stroke-miterlimit:10;" d="
			M392.593,409.15c0,0-4.876,0.535-12.105-0.65c-7.229-1.186-12.966,0.527-13.545,7.392c-0.58,6.865,18.089,12.401,30.898,13.948
			c12.809,1.548,25.508,1.676,31.45-1.48c5.942-3.156,5.041-12.762,2.334-16.993c-2.706-4.232-10.639-4.253-14.689-3.305
			C412.885,409.009,392.593,409.15,392.593,409.15z"/>
		
			<path style="fill:#636363;stroke:#263238;stroke-width:0.5;stroke-linecap:round;stroke-linejoin:round;stroke-miterlimit:10;" d="
			M422.151,377.045c-1.029-4.491-2.052-8.983-3.081-13.474c-0.956-4.17-1.57-8.667-2.987-12.704
			c-1.894-6.039-4.279-9.186-10.756-9.875c-6.477-0.689-13.042,6.718-12.804,9.793c0.238,3.075,2.968,9.846,0.436,21.022
			c-0.866,3.823,3.639,4.006,8.91,1.937L422.151,377.045z"/>
		<g>
			
				<path style="fill:#8A8A8A;stroke:#263238;stroke-width:0.5;stroke-linecap:round;stroke-linejoin:round;stroke-miterlimit:10;" d="
				M404.273,368.911c0,0-7.722,1.668-11.315,2.897c-3.593,1.229-4.81,2.677-5.919,5.26c-1.109,2.584-2.369,12.05-3.96,16.099
				c-1.59,4.049-4.948,5.363-5.219,9.548c-0.271,4.185,3.15,5.348,5.669,5.629c2.52,0.281,5.604,0.162,5.604,0.162
				s4.752,9.149,12.612,9.255c7.859,0.106,13.233-5.781,16.626-8.066c3.392-2.285,3.272-6.915,2.979-12.245
				c-0.293-5.331,1.925-17.538,0.841-20.785c-1.084-3.247-2.364-3.697-7.949-6.036C411.853,369.627,407.565,368.418,404.273,368.911
				z"/>
			
				<path style="fill:#FFFFFF;stroke:#263238;stroke-width:0.5;stroke-linecap:round;stroke-linejoin:round;stroke-miterlimit:10;" d="
				M381.664,395.73c-1.635,2.3-3.599,3.825-3.804,6.985c-0.046,0.71,0.021,1.327,0.166,1.874c0.538,0.692,2.155,2.302,4.978,1.254
				c3.534-1.312,2.758-6.316,0.324-9.244C382.844,396.017,382.271,395.758,381.664,395.73z"/>
		</g>
		<path style="fill:#263238;" d="M404.956,384.925c3.188-1.771,4.777-4.526,5.908-9.602c0.53-2.378,0.794-4.242,0.926-5.559
			c-2.312-0.688-5.166-1.205-7.517-0.853c0,0-3.335,0.72-6.641,1.563c-0.146,1.761-0.431,6.769,0.637,10.396
			C399.584,385.34,401.767,386.695,404.956,384.925z"/>
		<path style="fill:none;stroke:#263238;stroke-width:0.5;stroke-linecap:round;stroke-linejoin:round;stroke-miterlimit:10;" d="
			M390.641,403.392c0,0,1.908-6.095,1.78-7.751c-0.128-1.655-1.32-3.229-2.313-5.293c-0.992-2.065,0.862-5.777,0.862-5.777
			s0.547-10.385,1.648-12.271"/>
		
			<path style="fill:#FFFFFF;stroke:#263238;stroke-width:0.5;stroke-linecap:round;stroke-linejoin:round;stroke-miterlimit:10;" d="
			M378.511,392.672l1.627-2.029c0,0,1.153,0.598,3.785,1.254c4.916,1.225,7.178,2.062,7.634,4.882c0,0,3.037-2.257,6.258-2.149
			c3.22,0.108,6.159,1.189,7.114,1.234c0.955,0.045,0.955,0.045,0.955,0.045l0.365,1.637l-1.051,9.479l-13.945-0.349l-10.1-7.546
			L378.511,392.672z"/>
		
			<polygon style="fill:#263238;stroke:#263238;stroke-width:0.5;stroke-linecap:round;stroke-linejoin:round;stroke-miterlimit:10;" points="
			377.892,392.363 389.867,401.073 390.903,399.09 406.958,397.491 406.817,407.971 391.507,408.441 390.498,409.233 
			381.745,403.723 		"/>
		<g>
			
				<path style="fill:#FFFFFF;stroke:#263238;stroke-width:0.5;stroke-linecap:round;stroke-linejoin:round;stroke-miterlimit:10;" d="
				M416.787,386.144l0.806,13.499c0,0-6.675,4.442-10.495,5.808c-3.82,1.366-6.185,1.549-6.54,1.576
				c-0.355,0.027-2.084-2.337-2.976-3.101c-0.892-0.764-1.56-0.725-3.133-1.366c-2.188-0.89-3.117-1.006-2.962-0.542
				c0.155,0.464,0.31,0.928,1.42,1.437c1.11,0.509,1.856,0.927,1.856,0.927l0.273,0.455c0,0-2.629-0.154-3.712-0.308
				c-1.083-0.154-3.949-1.836-3.949-1.836s-1.163,0.018-0.225,1.374c0.937,1.355,1.746,1.364,1.746,1.364s0.346,1.401,1.356,2.155
				c1.01,0.755,1.756,1.173,1.756,1.173s-2.292-0.418-2.01,0.155s1.719,0.7,3.557,1.39c1.838,0.691,5.867,0.498,8.142,0.679
				c2.274,0.181,7.623,0.124,12.317-0.714c4.694-0.839,11.542-4.58,12.76-5.745c1.219-1.165-0.533-13.044-1.098-15.737
				c-0.565-2.692-1.668-7.722-2.324-10.051c-0.656-2.328-2.804-5.493-4.041-6.111C418.074,372.007,416.119,374.419,416.787,386.144z
				"/>
			<g>
				
					<path style="fill:#FFFFFF;stroke:#263238;stroke-width:0.5;stroke-linecap:round;stroke-linejoin:round;stroke-miterlimit:10;" d="
					M388.895,405.431c0,0,2.945,1.452,5.087,1.757"/>
				
					<path style="fill:#FFFFFF;stroke:#263238;stroke-width:0.5;stroke-linecap:round;stroke-linejoin:round;stroke-miterlimit:10;" d="
					M392.008,408.759c0,0,1.544,0.463,2.831,0.363"/>
				
					<path style="fill:#FFFFFF;stroke:#263238;stroke-width:0.5;stroke-linecap:round;stroke-linejoin:round;stroke-miterlimit:10;" d="
					M389.347,406.604c0,0,2.107,1.367,5.086,1.843"/>
			</g>
		</g>
		
			<path style="fill:#8A8A8A;stroke:#263238;stroke-width:0.5;stroke-linecap:round;stroke-linejoin:round;stroke-miterlimit:10;" d="
			M415.408,409.955c4.554-1.214,10.263-4.376,11.366-5.43c1.219-1.165-0.533-13.044-1.098-15.737
			c-0.565-2.692-1.668-7.722-2.324-10.051c-0.656-2.328-2.804-5.493-4.041-6.111c-1.237-0.618-3.192,1.793-2.524,13.519
			l0.806,13.499c0,0-2.595,1.726-5.474,3.357C413.369,404.165,415.518,406.66,415.408,409.955z"/>
		<g>
			
				<path style="fill:#FFFFFF;stroke:#263238;stroke-width:0.5;stroke-linecap:round;stroke-linejoin:round;stroke-miterlimit:10;" d="
				M399.966,367.832c0,0-0.583,6.214-0.395,10.028c0.189,3.814,3.337,7.4,6.979,2.226c3.642-5.174,2.386-13.16,2.386-13.16
				S404.985,369.464,399.966,367.832z"/>
			<path style="fill:none;stroke:#263238;stroke-width:0.5;stroke-linecap:round;stroke-linejoin:round;stroke-miterlimit:10;" d="
				M400.488,370.45c0,0,0.465,3.261,0.287,5.083"/>
		</g>
		<g>
			
				<path style="fill:#FFFFFF;stroke:#263238;stroke-width:0.5;stroke-linecap:round;stroke-linejoin:round;stroke-miterlimit:10;" d="
				M378.908,401.372c0,0-0.235,0.863,0.305,1.606c0.54,0.743,3.177,2.048,3.13,1.448c-0.046-0.6-1.372-1.343-1.464-1.758
				c-0.092-0.415-0.499-0.988-0.499-0.988S379.392,400.61,378.908,401.372z"/>
			
				<path style="fill:#FFFFFF;stroke:#263238;stroke-width:0.5;stroke-linecap:round;stroke-linejoin:round;stroke-miterlimit:10;" d="
				M377.428,397.958c0,0,0.019,1.762,0.381,2.56c0.362,0.798,3.694,2.736,4.474,2.255c0.78-0.481-1.887-2.458-2.53-3.092
				C379.111,399.046,377.428,397.958,377.428,397.958z"/>
			
				<path style="fill:#FFFFFF;stroke:#263238;stroke-width:0.5;stroke-linecap:round;stroke-linejoin:round;stroke-miterlimit:10;" d="
				M377.272,395.824c0,0-0.105,1.759,0.199,2.58s3.491,2.99,4.303,2.565c0.812-0.425-1.709-2.584-2.305-3.263
				C378.874,397.028,377.272,395.824,377.272,395.824z"/>
			
				<path style="fill:#FFFFFF;stroke:#263238;stroke-width:0.5;stroke-linecap:round;stroke-linejoin:round;stroke-miterlimit:10;" d="
				M378.559,393.732c0,0-1.875-0.821-2.082,0.402c-0.207,1.224,1.27,2.377,2.61,3.3c1.339,0.923,1.865,0.701,1.791-0.259
				C380.803,396.215,378.559,393.732,378.559,393.732z"/>
		</g>
		
			<path style="fill:#FFFFFF;stroke:#263238;stroke-width:0.5;stroke-linecap:round;stroke-linejoin:round;stroke-miterlimit:10;" d="
			M381.297,431.277c0,0-2.268,1.444-6.67,1.943c-4.403,0.499-8.212-1.586-6.309-3.636c1.904-2.051,4.971-3.398,7.846-3.144
			c2.875,0.254,7.217,1.028,7.217,1.028L381.297,431.277z"/>
		
			<path style="fill:#FFFFFF;stroke:#263238;stroke-width:0.5;stroke-linecap:round;stroke-linejoin:round;stroke-miterlimit:10;" d="
			M381.623,427.287c0.217,0.009,0.443,0.005,0.672-0.005c-1.474-0.246-4.15-0.668-6.131-0.842c-2.875-0.254-5.943,1.094-7.846,3.144
			c-0.97,1.045-0.455,2.097,0.864,2.814c-0.147-0.883-0.076-2.352,1.634-3.324C373.4,427.605,378.919,427.179,381.623,427.287z"/>
		<g>
			
				<path style="fill:#92E3A9;stroke:#263238;stroke-width:0.5;stroke-linecap:round;stroke-linejoin:round;stroke-miterlimit:10;" d="
				M429.637,414.375c0,0-4.182,7.461-8.692,10.665s-26.087,5.189-30.502,5.531c-4.415,0.341-9.145,0.707-9.145,0.707l-0.256-3.311
				c0,0,14.347-3.171,22.035-8.365c7.688-5.194,11.555-10.569,17.703-13.106c6.148-2.537,11.935,0.505,12.436,9.031"/>
		</g>
		
			<path style="fill:#263238;stroke:#263238;stroke-width:0.5;stroke-linecap:round;stroke-linejoin:round;stroke-miterlimit:10;" d="
			M376.975,411.676c-0.173-0.006-0.348-0.009-0.524-0.009"/>
		
			<path style="fill:#FFFFFF;stroke:#263238;stroke-width:0.5;stroke-linecap:round;stroke-linejoin:round;stroke-miterlimit:10;" d="
			M422.971,428.69c0,0,3.832-1.724,7.107-2.453c3.275-0.729,5.992-0.463,7.096,1.513c1.105,1.977,0.669,4.548-2.593,5.435
			c-3.262,0.887-9.351,0.089-9.982,0.137s-1.613-0.351-1.613-0.351L422.971,428.69z"/>
		
			<path style="fill:#FFFFFF;stroke:#263238;stroke-width:0.5;stroke-linecap:round;stroke-linejoin:round;stroke-miterlimit:10;" d="
			M433.186,425.87c1.037,0.31,3.021,1.229,2.86,3.712c-0.217,3.348-4.159,3.652-6.839,3.86c-0.201,0.016-0.393,0.061-0.578,0.127
			c2.003,0.081,4.327,0.057,5.951-0.384c3.262-0.887,3.698-3.458,2.593-5.435C436.446,426.447,435.014,425.891,433.186,425.87z"/>
		<g>
			
				<path style="fill:#92E3A9;stroke:#263238;stroke-width:0.5;stroke-linecap:round;stroke-linejoin:round;stroke-miterlimit:10;" d="
				M374.921,408.296c0,0-5.434-0.532-8.695,2.417s-2.569,5.75,1.059,9.594c3.628,3.844,12.703,10.438,31.406,12.323
				c18.703,1.885,24.294,0.342,24.294,0.342l-0.014-4.282c0,0-11.461,1.521-22.622-5.389c-10.908-6.753-15.896-11.387-23.374-11.625
				"/>
		</g>
		<g>
			
				<path style="fill:#FFFFFF;stroke:#263238;stroke-width:0.5;stroke-linecap:round;stroke-linejoin:round;stroke-miterlimit:10;" d="
				M415.261,360.036c-2.787,1.755-3.416-1.286-3.55-3.141c0.028-0.029,0.046-0.058,0.051-0.087c0.147-0.866-0.394-5.1-2.969-6.611
				c-2.271-1.332-5.229-2.405-7.896-2.202c-1.88,0.143-3.455,1.47-4.345,3.07c-1.059,1.904-0.794,3.996-0.73,6.098
				c0.064,2.123,0.042,4.421,0.622,6.481c0.774,2.748,3.833,8.409,6.997,8.165c2.873-0.222,7.637-4.912,9.191-7.579
				c0.198-0.076,0.596-0.268,1.027-0.699C414.267,362.921,415.497,361.89,415.261,360.036z"/>
			<path style="fill:none;stroke:#263238;stroke-width:0.5;stroke-linecap:round;stroke-linejoin:round;stroke-miterlimit:10;" d="
				M402.462,359.154c0,0-0.993,4.102-0.864,4.56c0.129,0.458,1.675-0.129,1.675-0.129"/>
			<path style="fill:none;stroke:#263238;stroke-width:0.5;stroke-linecap:round;stroke-linejoin:round;stroke-miterlimit:10;" d="
				M401.727,365.388c0,0,1.821,1.162,4.409-1.09"/>
			<path style="fill:none;stroke:#263238;stroke-width:0.5;stroke-linecap:round;stroke-linejoin:round;stroke-miterlimit:10;" d="
				M405.547,360.319c0,0,1.082,1.882,3.973,0.535"/>
			<path style="fill:none;stroke:#263238;stroke-width:0.5;stroke-linecap:round;stroke-linejoin:round;stroke-miterlimit:10;" d="
				M396.9,358.647c0,0,0.709,1.911,3.629,0.936"/>
			<path style="fill:none;stroke:#263238;stroke-width:0.5;stroke-linecap:round;stroke-linejoin:round;stroke-miterlimit:10;" d="
				M402.06,356.754c0,0-1.348-3.715-4.674-1.514"/>
			<path style="fill:none;stroke:#263238;stroke-width:0.5;stroke-linecap:round;stroke-linejoin:round;stroke-miterlimit:10;" d="
				M410.873,360.188c-0.159-2.056-1.954-3.593-4.01-3.434c-2.056,0.159-3.593,1.954-3.434,4.01c0.159,2.056,1.954,3.593,4.01,3.434
				C409.494,364.039,411.032,362.244,410.873,360.188z"/>
			<path style="fill:none;stroke:#263238;stroke-width:0.5;stroke-linecap:round;stroke-linejoin:round;stroke-miterlimit:10;" d="
				M402.182,359.175c-0.159-2.056-1.954-3.593-4.01-3.434c-2.056,0.159-3.593,1.954-3.434,4.01c0.159,2.056,1.954,3.593,4.01,3.434
				C400.804,363.026,402.341,361.231,402.182,359.175z"/>
			
				<line style="fill:none;stroke:#263238;stroke-width:0.5;stroke-linecap:round;stroke-linejoin:round;stroke-miterlimit:10;" x1="410.744" y1="360.947" x2="413.772" y2="360.151"/>
			
				<line style="fill:none;stroke:#263238;stroke-width:0.5;stroke-linecap:round;stroke-linejoin:round;stroke-miterlimit:10;" x1="394.759" y1="358.813" x2="395.811" y2="357.889"/>
			<g>
				
					<path style="fill:#636363;stroke:#263238;stroke-width:0.5;stroke-linecap:round;stroke-linejoin:round;stroke-miterlimit:10;" d="
					M397.742,349.662c0,0,3.138-2.273,4.454-0.451c1.317,1.822,7.589,14.106,13.064,10.825c5.475-3.28-0.985-12.187-6.74-14.735
					C402.766,342.754,398.288,345.665,397.742,349.662z"/>
			</g>
			<path style="fill:none;stroke:#263238;stroke-width:0.5;stroke-linecap:round;stroke-linejoin:round;stroke-miterlimit:10;" d="
				M406.077,355.918c0,0,2.497-1.597,4.896,0.37"/>
		</g>
		<path style="fill:none;stroke:#263238;stroke-width:0.5;stroke-linecap:round;stroke-linejoin:round;stroke-miterlimit:10;" d="
			M404.02,392.445c0,0,3.913,4.184,9.8,3.729"/>
	</g>
</g>
</svg>
