<?xml version="1.0" encoding="utf-8"?>
<!-- Generator: Adobe Illustrator 27.0.0, SVG Export Plug-In . SVG Version: 6.00 Build 0)  -->
<svg version="1.1" id="Layer_1" xmlns="http://www.w3.org/2000/svg" xmlns:xlink="http://www.w3.org/1999/xlink" x="0px" y="0px"
	 viewBox="0 0 500 500" style="enable-background:new 0 0 500 500;" xml:space="preserve">
<style type="text/css">
	.st0{fill:#006094;}
	.st1{fill:#5DDBFE;}
	.st2{fill:#FFFFFF;}
	.st3{fill:#FE6D34;}
	.st4{fill:#E3CEBD;}
	.st5{fill:#333333;}
</style>
<g id="Background">
	<rect y="0" class="st0" width="500" height="500"/>
	<circle class="st1" cx="238" cy="250" r="161.4"/>
</g>
<g id="Logo">
	<g id="Logo_1_">
		<g id="Fill">
			<g>
				<path class="st2" d="M165,248.4c-1.8-1.2-3.3-2.7-4.7-4.3c-1.4-1.6-2.6-3.5-3.5-5.4c-0.2-0.5-0.4-0.9-0.7-1.4
					c-0.2-0.5-0.2-1-0.2-1.6c0-1,0.1-2-0.2-2.9c-0.1-0.3-0.1-0.6-0.1-0.9c0-0.3-0.1-0.7-0.1-1c-0.1-0.9-0.3-1.8-0.5-2.7
					c0-0.1,0-0.1,0-0.2c0-0.1,0-0.2,0.1-0.2c0-0.2,0.1-0.4,0.1-0.6c0-0.1,0-0.2,0-0.3c0-0.2,0-0.4,0-0.7c0-0.2,0.1-0.4,0.2-0.6
					c0.1-0.4,0.3-0.8,0.4-1.3c0.1-0.3,0.2-0.6,0.4-0.8c0.5-1,1.2-1.8,1.9-2.5c1.6-1.7,4-2.2,6.2-2.5c-1.2-2.8-2.7-5.6-5.3-7.3
					c-1.6-1.1-3.9-0.9-5.2,0.6c-3.2,3.4-3.8,8.3-3.7,12.8c0.1,1,0.1,2,0.3,2.9c0.1,0.9,0.3,1.9,0.4,2.8c0,0.1,0,0.1,0,0.2
					c0,0.1-0.1,0.2-0.1,0.3c-0.1,0.1-0.1,0.2-0.2,0.3c-0.1,0.1-0.2,0.1-0.3,0.1c-0.2,0-0.3-0.1-0.4-0.3c-0.1-0.2-0.2-0.4-0.3-0.6
					c-0.2-0.4-0.3-0.8-0.5-1.2c-0.3-0.8-0.6-1.6-0.8-2.4c-0.5-2.2-0.7-4.5-0.7-6.7c0.1-2.2,0.4-4.5,1.1-6.6c1.1-3.2,3.3-6.3,6.5-7.5
					c2.3-0.8,4.6,0.4,6.6,1.6c0.5,0.4,1,0.7,1.6,1c2.1,1.9,3.7,4.3,5.4,6.5c-1.3-5.6-2.2-10.7-2.7-13.8c-2.8-2.3-5.9-4.3-9.4-5.4
					c-4.8-0.9-9.9,1.6-12.7,5.5c-4.7,6.4-6.4,14.8-5.2,22.6c0.9,5.7,2.1,11.5,5.1,16.6c1.8,4,5,7.4,8.8,9.6
					c3.7,2.4,8.1,3.5,11.7,6.1C164.7,253.4,165,250.9,165,248.4z"/>
				<path class="st2" d="M226.1,205c6-1.1,10.7-5.2,16.2-7.5c-1.9,2.5-4.3,4.7-5.7,7.6c9-4.6,18.7-9,29.1-8.5
					c6.3,0.3,11.9,4.8,13.5,10.9c1-5.4,0.1-12-4.9-15.2c-5-2.9-10.9-1.6-16.3-0.8c-7.4,1.4-15,1.5-22.4,2.4
					C230.1,194.3,225.2,199.3,226.1,205z"/>
				<path class="st2" d="M255.3,218.3c2.9,0.1,5.8,0.5,8.6,1.1c2.4,0.5,5.3,1,7.4,2.5c0.9,0.6,1.6,1.5,2.5,2.1
					c0.2,0.1,2.6,1.3,2.5,1c-0.1-0.8-0.6-1.4-0.8-2.2c-0.3-0.8-0.1-1.8-0.6-2.5c-1-1.6-4-1.9-5.6-2.4c-3.3-1-6.7-1.8-10.2-2.3
					c-6.9-0.9-14.1-0.4-20.6,2.4c0,0.6-0.1,1.8-0.1,2.4c0-0.7,7.4-1.7,8.3-1.8C249.5,218.3,252.4,218.2,255.3,218.3z"/>
				<path class="st3" d="M231.5,239.6c-0.5,1.6-0.8,3.2-0.9,4.9c-0.2,3.4,0.5,6.8,2.5,9.6c1.2,1,2.5,2.1,4.1,2.3
					c6,1.2,12.7,1.3,18.2-1.8c1.4-0.8,2.8-1.5,4.2-2.4c5-3.2,9.5-7.3,12.2-12.6c1.3-2.6,2-5.1,0.9-7.9c-0.9-2.3-2.7-4.3-5.3-4.6
					c-5.5-0.5-10.9-1.5-16.4-1.9c-0.1,0-0.3,0-0.4,0.1c-0.1,0.1-0.2,0.2-0.2,0.4c-0.1,0.5-0.3,1-0.4,1.5c-0.2,0.6-0.4,1.2-0.7,1.8
					c-0.3,0.5-0.7,1-1.1,1.5c-1.3,1.4-2.7,2.6-4.2,3.5c-3,1.7-6,1.7-9.4,1.5c-0.3,0-0.7,0-1,0.1
					C232.4,235.8,231.8,238.5,231.5,239.6z M243.9,254.5c3.8-0.6,7.5-2.1,10.4-4.8c1.3-1.2,2.4-2.5,3.5-4c1-1.5,2-3,3.5-4.1
					c1.3-1,3-1.5,4.6-1.8c0.4-0.1,2-0.6,2.1-0.1c0.1,0.4-0.9,1.8-1.2,2.1c-1.8,3-4.1,5.7-6.7,8.1c-0.9,0.8-1.9,1.6-3,2.3
					c-2.1,1.4-4.4,2.5-6.8,3.1c-4.1,1.1-8.5,1-12.4-0.4c0,0-0.1,0-0.1,0C239.8,254.9,241.9,254.8,243.9,254.5z"/>
				<path class="st2" d="M280.2,277c4.7,0.7,10,0,13.9-2.8c2.5-2.1,4.3-5,4.3-8.3c0.1-5.5-1.3-10.9-2.7-16.1c-0.5-2.6-1.6-5-2.7-7.3
					c-1.7-3.3-1.4-7.2-1.9-10.8c-3.2-1.8-7.5-2.5-10.8-0.6c-2.3,7.5-5.5,14.9-11.1,20.5c-2.1,2.2-4.7,3.9-7.2,5.6
					c-2.3,1.5-4.6,2.8-4.9,5.8c-0.1,1.3,0,4.1,2,3.3c2.8-1.2,5.9-3.3,8.9-1.8c3,1.3,3.5,4.8,4.8,7.5
					C274,274.9,277.1,276.6,280.2,277z"/>
				<path class="st2" d="M223.7,250.6c0.7-3.4,0.8-6.8,1.2-10.2c-2.1,2.5-3.9,5.1-6,7.6c-2.3,2.7-4.9,5.7-8.6,6.5
					c-3.7,1.2-7.3-0.7-10.5-2.4c1.8,6,3.9,11.9,5.3,18C212.9,265.4,221,259.6,223.7,250.6z"/>
				<path class="st2" d="M196.7,214.6c-0.7-0.5-1.4-1-2.2-1.5c-0.3,7.5,0.3,15,1.3,22.4l0.1,0.1c0.3,1.6,0.6,3.2,0.9,4.8l0.2,0.1
					c0.7,3,1.6,6,3.6,8.4c2.1,2.6,5.9,3.5,9,2.4c4-1.3,6.6-4.8,8.7-8.2c2.5-2.4,4.7-5,6.6-7.9c0.3-1,0.7-2,1-3c-3.2-1.6-6-4-9.3-5.3
					C210.1,222.8,203.7,218.2,196.7,214.6z"/>
				<path class="st3" d="M240.9,224.9c-2.7,1.5-5.4,3.6-6.8,6.5c2.7-0.5,5.6-0.8,8.2-1.8C244.6,228.5,243.6,224.2,240.9,224.9z"/>
				<path class="st2" d="M127.3,183.7c-2,5-3.3,10.2-3.8,15.5c0.2,2.7,0.2,5.5,1.2,8.1c1.3,3.5,4.1,6.1,7.1,8.2
					c-2.5-3.5-3.7-7.7-5.3-11.6c3,2.1,5.6,6.3,9.8,5c0.5-3.2,0.4-6.6-1.1-9.6C132.7,194,130.3,188.7,127.3,183.7z"/>
				<path class="st2" d="M235.2,305c7.9-0.4,15.8-1.1,23.2-4.1c5.1-1.9,10.2-5.1,12.6-10.2c2.4-5.3,0.7-11.5-2.6-16
					c-0.2-0.6-0.6-1.7-0.8-2.3c-3.1,2.2-6.4,4.4-10.3,5c2.2-1.6,4.6-2.9,6.2-5.1c-2.9-0.3-5.4,1.1-8.2,1.4c-4.6,0.7-8.3,0-8.3,0
					s7.3-0.9,10.8-2.9c-0.8-0.3-1.6-0.6-2.5-0.6c-7.7-0.9-16-0.4-22.7,3.8c-8.6,5.3-15.5,12.8-22.2,20.2c-4.2,4.7-9.2,8.5-14.6,11.6
					c-2.2,1-4.6,1.8-6.5,3.3c5.1,0.3,10.3,0.5,15.1-1.3c6.3-1.9,11.5-5.9,16.7-9.8c-2,3.1-4.4,5.9-6.6,8.9c5.9-1.9,12.1-2.3,18-4.2
					c3.9-1.1,7.2-3.6,10.3-6.1l0,1.1C241,300.9,238.1,303.1,235.2,305z"/>
				<path class="st3" d="M211.5,128.8c5.7-5.1,12-9.5,18.9-12.8c24.6-12.7,52.4-19,80-19.2c2,0,4,0.7,6,1.1c-0.4-1-0.9-1.9-1.4-2.8
					l0.1,0.8c-4-6.5-10.3-11.2-16.5-15.5c-15.3-10-34-13.8-52.1-13.3c-5.5,0.3-11,0.6-16.5,1.6c-2.7,0.4-5,2.1-7.1,3.9l-0.3,0
					c-7.2,6.6-12.5,15.3-14.8,24.8C206.7,108.1,210.5,118.3,211.5,128.8z"/>
				<path class="st3" d="M197.7,112.9c1.4-0.6,3.9-0.7,3.9-2.7c0.3-5.4-0.4-10.9,0.8-16.3c0.6-3,1.7-5.9,3.1-8.7
					c2.3-5,5.2-9.7,7.2-12.8c-6,2-11.8,4.8-17.2,8c-7.2,4.2-13.7,10.5-15.7,18.8c-2.6,6.5-1.4,13.6-1.3,20.4
					C184.8,117.4,191,114.4,197.7,112.9z"/>
				<path class="st2" d="M287.2,202.8c-0.4-5.7,0.5-12.1-2.9-17.1c-3.8-4.8-10.5-4.5-16-4.3c-6.6,0.5-12.5,3.7-18,7.2
					c5.9-0.9,11.9-1.1,17.8-1.1c3.5,0,7,1,10,2.9c2.7,2.6,4.4,6.1,5,9.8c0.3,4-0.2,8-0.6,11.9C286.5,211,287.3,206.5,287.2,202.8z"
					/>
				<path class="st2" d="M150.9,191.8c1.7-0.4,1.9-1.7,0.9-3.6c-4.6-8.1-11.6-14.9-20.1-18.8c-4.1-1.6-8.6-1-12.9-0.8
					c5.7-2,9.7-3,13.2-3c2,0.1,3.9,0.4,5.8,0.8c1,0.2,1.9,0.5,2.8,0.8c7.4,2.3,13.5,7.3,19.5,12.1c3.1,2.5,6.6,4.4,9.7,6.9
					c-6.2-2.6-12.7-4.6-19.1-6.8c2.7,4.3,5.6,8.7,9.9,11.4c2.7,1.7,5.6,3.1,8.5,4.3c-1.5-3.2-2.5-6.8-2.5-6.8c2.4,2.8,4.5,6,7.3,8.4
					c5,4.3,14.5,3.7,17.2,2.5c-5.6-1-10.7-3.7-14.6-7.7c1.2,1.2,4,1.8,5.6,2.1c2,0.4,4,0.5,5.9,0.4c2.1-0.2,4.1-0.6,6.1-1.3
					c0.6-0.2,4.9-1.9,4.2-2.5c-2.7-2.3-6-3.7-9.2-5.3c-2.7-1.4-6.7-3.6-7.9-6.6c1.9,1.2,3.2,2.9,5.3,3.8c3.5,1.4,7.3,1.4,11,1.5
					c1.9,0.1,3.7-0.1,5.6-0.2c-0.4-1.6-0.7-3.3-1.1-4.9c-1.2-14.9-1.5-30,1.3-44.7c-0.5-1.1-1.6-1.6-2.6-2.1
					c-12-5.8-25.8-7.7-39-5.6c-9.1,1.7-18,6.9-22.6,15.2c3-2.1,5.6-4.8,9-6.4c9-4.3,19.2-4,29-3.9c-8.7,0.5-17.6,1.9-25.5,5.8
					c-5.8,2.9-9.9,7.9-13.7,13c-3.8,5.2-10,7.5-15.5,10.5c-4.5,2.3-8.2,6-11.1,10.2c1.4,0.1,2.8,0.3,4.2,0.4c0,0,0,0,0.1,0
					c0.3,0,0.5,0,0.8,0.1l0,0c3.6,0.6,6.5,2.8,6.5,2.8c2.2,1.4,4.2,3.2,5.9,5.1c4.8,5.7,8.3,12.4,11.8,18.9
					C143.3,194.3,147,192.7,150.9,191.8z"/>
				<path class="st2" d="M225.4,253c-3.3,9-11.4,14.9-19.7,18.8c0.8,6.4,0.6,12.9-0.3,19.3c7.6-7.2,14.8-14.9,23.5-20.8
					c3.3-2.3,7-4.1,10.9-5c1.6-0.2,3.1-0.3,4.6-0.5c2.3-0.1,4.6-0.1,6.9-0.2c0-0.8,0-1.6-0.1-2.4c-4.2,0.4-8.4,0.6-12.6-0.3
					c-2-0.4-3.9-1.3-5.8-2.1c-2.5,2.1-4.7,4.5-6.7,7l0-0.1c-0.3,0.2-0.9,0.6-1.2,0.8c1.6-2.9,3.3-5.9,5.4-8.5
					C228.3,257.4,226.6,255.3,225.4,253z"/>
				<path class="st2" d="M331.4,162.8c-1-6.7-2.8-13.6-7.3-18.8c-0.5-1.1-1.5-1.9-2.3-2.7c-1.5-1.7-3.4-3-5.4-4.1l-0.1-0.2
					c-5.5-3.6-12.5-4.6-19-3.2c-10.9,2.3-20.3,8.9-29.2,15.3c-4.2,2.9-7.9,7-13,8.5c-7.3,1.6-15.4,1.2-21.9-2.7
					c-8.7-5-16.8-11.1-25.6-16c-0.1,2.8-0.3,5.7-0.5,8.5c-0.1,4.1-0.3,8.2-0.3,12.3c0,9.8,1.4,19.5,2.8,29.2
					c-1.8,2.3-3.6,4.7-5.3,7.1c-2.9,3.6-4,8.1-5.1,12.5c1.7,1.4,3.6,2.6,5.5,3.6l0,0.1c2.6,1.4,5.2,2.8,7.8,4.4
					c5.5,3.8,11.6,6.7,17.3,10c1.7-3.2,2.2-6.9,3.4-10.3c-0.1,0.4-3.5-0.5-3.8-0.6c-1.6-0.4-3.1-1-4.6-1.8c-1.7-0.9-3.4-1.9-4.1-3.8
					c-0.5-1.3-0.6-2.8-0.5-4.2c0.2-1.5,0.6-2.9,1.2-4.3c0.3-0.7,0.6-1.3,1-2c0.2-0.4,0.7-1.5,1.1-1.7c-4.9,2.7-10,5-15.1,7.2
					c2.7-1.9,5.8-3.2,8.5-5c4.4-2.9,8.3-6.6,13.1-8.8c4.4-2,9.3-2.3,13.8-3.9c5.2-1.8,10.1-4.2,15.4-5.6c3.2-1,6.6-1.2,9.8-2.1
					c-5.4-0.6-10.8-1.8-16.3-1.5c-6.6,0.4-13.1,2.3-18.9,5.5c-7.6,4-15.5,7.5-22.8,12c-2.3,1.4-4.2,3.3-6.2,5.1
					c0.6-0.7,1.2-1.4,1.8-2.2c0.3-0.4,0.6-0.7,0.9-1.1c1.5-1.9,3.8-2.8,5.7-4.1c1.7-1.1,3.5-2.2,5.2-3.2c0.7-0.4,1.5-0.8,2.2-1.3
					c0.4-0.2,0.7-0.4,1.1-0.6c2.4-1.3,4.9-2.5,7.3-3.8c2.4-1.3,4.8-2.7,7.2-3.9c1-0.5,2-1,3-1.4c5-1.8,10.3-2.6,15.6-2.8
					c3.6-0.1,7.2,0.1,10.7,0.7c5.3,0.9,10.6,2.5,15.6,4.3c5,1.9,7.2,7.4,7.8,12.3c0.9,6.8,1.8,14.2-1.6,20.5c-1,1.4-2.1,2.8-3.1,4.3
					c-1.6,1.7-3.4,3.6-3,6.2c2.7,0,5.4,0.1,8,0.3c1.9,0.4,3.9,0.9,5.8,1.3c2.7-2.3,3.3-5.9,4-9.2c0.6-6,0.8-12,2.2-17.9
					c0.4-1.7,1.2-3.9,3.3-3.9c4.2-0.2,8.4-0.3,12.6-0.6c0.6-1.6,1.5-2.8,2.9-3.8c1.8-1.3,3.9-2.2,6.1-2.8c1-0.3,2-0.5,3-0.6
					c0.4-0.1,0.9-0.2,1.3-0.1c0.1,0,0.9,0.3,0.9,0.3c-2.4,0.6-4.7,1.5-6.8,2.9c-1,0.7-2,1.4-2.9,2.2c-0.2,0.2-2,2.3-2.2,2.2
					c2.3,0.6,4.7,1.2,7,1.8c-0.4-1.4-0.7-2.8-1-4.2c2.2,1.8,3.8,4.4,6.4,5.8c0.2-1.2,0.4-2.3,0.6-3.5c2.4,1.9,5.2,3.3,8.2,3.9
					c-2.2-2.8-5.2-5.2-6.2-8.8C331.5,181.3,332.8,171.9,331.4,162.8z M244.7,170.9c-0.2,0.3-0.8,0.4-1.2,0.5
					c-0.5,0.1-0.9,0.3-1.4,0.4c-0.9,0.3-1.8,0.7-2.6,1c-1.7,0.7-3.4,1.6-5,2.4c-0.1,0-0.1,0.1-0.2,0.1c-4.3,2-8.2,4.9-12.6,6.8
					c0.6-0.2,1.2-0.8,1.7-1.2c0.6-0.4,1.1-0.8,1.7-1.2c1.1-0.8,2.2-1.6,3.4-2.3c3.1-2.1,6.3-4,9.8-5.6c0.1-0.1,0.3-0.1,0.4-0.2
					c1.5-0.7,3-1.5,4.6-1.8c0.2,0,0.4-0.1,0.7,0c0.3,0,0.5,0.2,0.7,0.4c0.1,0.1,0.2,0.3,0.2,0.5
					C244.8,170.8,244.8,170.9,244.7,170.9z M285.3,162.7c4.6,1.3,9.3,2.1,14,2.5c5.7,0.4,11.4,0.2,17.1-0.4c3.9-0.4,7.7-1,11.6-1.7
					c0,1.5-1.8,1.9-3,2.2c-6.9,1.8-14.1,2-21.2,2.4c-1.4,0.1-2.8-0.1-4.2-0.1c-1.4-0.1-2.9-0.2-4.3-0.3c-2.9-0.3-5.7-0.6-8.5-1.3
					c-1-0.2-2-0.5-3-0.8c-1-0.3-2.1-0.4-2-1.6C282.1,162,284.3,162.4,285.3,162.7z M281,174.5c-1.7-0.4-3.4-0.8-5.1-1.1
					c-0.9-0.2-2.1-0.4-2.4-1.5c-0.1-0.4-0.2-0.8-0.1-1.1c0.2-0.4,0.6-0.6,1-0.6c1.2-0.2,2.4,0.3,3.5,0.5c1.2,0.3,2.5,0.6,3.7,0.9
					c2.5,0.6,5,1.2,7.5,1.7c12.7,2.6,26,2.5,38.7-0.6c-0.6,1.6-2.2,2.2-3.8,2.4c-5.7,1.2-11.4,1.8-17.2,1.9
					c-5.8,0.1-11.6-0.2-17.3-1C286.7,175.6,283.9,175.1,281,174.5z M325.1,183.9c-5.3,1.4-10.7,2.4-16.1,3c-1.6,0.2-3.3,0.3-4.9,0.4
					c-2.2,0.1-4.5,0-6.7-0.2c-2-0.2-4.2-0.3-6.1-1c-0.6-0.2-1.2-0.5-1.7-0.9c-0.2-0.1-0.6-0.4-0.5-0.6c0-0.1,0.1-0.1,0.2-0.2
					c0.1-0.1,0.3-0.1,0.5-0.1c1.2-0.1,2.4,0.1,3.6,0.3c1.2,0.2,2.4,0.3,3.6,0.4c1.9,0.2,3.9,0.4,5.8,0.3c2.8-0.1,5.6-0.4,8.4-0.8
					c5.5-0.8,10.8-2.2,16.3-3.1c0.2,0,1.9-0.6,2-0.5C330.2,182.8,326,183.6,325.1,183.9z"/>
				<path class="st3" d="M321.6,230.8c-2.3-1-4.9-1.3-7.4-1.5c-1.1-0.1-1.3,0.2-1.3,1.2c0.1,3-1.3,5.8-3.5,7.7
					c-2.1,1.9-4.9,2.6-7.5,3.6c-0.3,0.1-0.7,0.2-1,0.2c3,1.6,5.8,4.1,5.4,7.9c-1.9-1.4-3.8-2.8-6.1-3.5c0.6,4.4,1.9,8.7,2.5,13.1
					c0,0,2.2-0.3,5.1-1c0,0,0,0.1,0,0.1c3.6-0.9,7.3-1.7,10.4-3.8c3.4-2.2,4.8-5.9,5.5-9.7c0.5-2.9,0.3-6.3,1.1-9.1
					c1,1,1,2.9,0.9,4.2c-0.1,2.7-1.4,8.8-2.7,12.8c0.2-0.5,1.5-1.4,1.8-1.9c0.5-0.7,0.9-1.6,1.3-2.4c0.8-1.7,1.6-3.6,1.6-5.5
					c0-0.5,0-1,0-1.5C327.8,237.2,326.1,232.7,321.6,230.8z"/>
				<path class="st2" d="M307.4,263.8c-1.5,0.1-3.1,0.3-4.6,0.4c0.3,1.9,0.3,3.9,0.9,5.8c1.2,0.9,2.8,1,4.2,1.6
					C307.7,269,307.5,266.4,307.4,263.8z"/>
				<path class="st2" d="M325.5,220.9c-2.5-0.6-5.1-0.4-7.7-0.3c-2.6,0.1-5.1,0.3-7.6,0.6c-2.4,0.3-4.5,0.5-6.7,1.6
					c4.1-0.4,8.3-0.6,12.4,0c2.8,0.4,5.5,1,8.1,2.1c1.8,0.8,5.1,1.9,5.7,4c0.7,2.1,0.9,4.4,0.8,6.6c1.9,0,3.3-1.7,3.3-3.5
					C334.2,226.3,331.1,222.1,325.5,220.9z"/>
				<path class="st3" d="M378.5,120.6c-8.6-6.9-18.8-11.6-29.5-14.2l0-0.2c-12.1-3.1-24.6-4.8-37.1-4.5c-14.4,0.3-28.8,1.4-42.7,5.5
					c-19.9,5.9-39.1,14.7-55.8,27.2c5.6,3.7,11.6,6.7,18.1,8.5c6,2.1,12.4,3.7,18.8,2.8c6.9-1.1,12.6-5.4,18.2-9.1
					c7.1-5.1,14.5-9.9,22.1-14.2l0.1-0.3c7.5-4.3,15.2-8,23-11.7c7.7-3,16-4.8,24.3-3.6c3.8,0.4,7.5,1.1,11.2,1.8
					c13.3,3,25.5,9.9,35.9,18.6C383.4,124.5,380.9,122.5,378.5,120.6z"/>
				<path class="st3" d="M298.9,234.7c0.4,1,1.4,1.8,2.6,1.6c1.3-0.2,2.4-0.9,3.4-1.8c0.5-0.5,2.3-2.2,2-3.2
					c-0.1-0.3-0.3-0.5-0.8-0.6c-2.2-0.4-4.3-0.7-6.2,0.8C298.9,232.3,298.4,233.4,298.9,234.7z"/>
				<path class="st2" d="M182.1,336.6c3.7-9.2,11.3-16.5,20.2-20.5c-5.3,0.3-10.6-0.5-15.8-1.2c-6.2,4.9-11.3,11.6-12.8,19.4
					c-1.9,9.5-2,19.9,2.4,28.7c4.3,8.6,10.5,16.2,18,22.2c-4.2-5.3-8.6-10.7-11.4-16.9C178.2,358.4,178.1,346.7,182.1,336.6z"/>
				<path class="st2" d="M164.1,226.2c-2.1,0-4,1.9-3.8,4c0.1,4.5,2.6,8.6,5.9,11.5c0.5-4.4,0.5-8.8-0.6-13.1
					C165.3,227.7,165,226.6,164.1,226.2z"/>
				<path class="st2" d="M325.9,209.9c1.2,1.3,2.3,2.8,3.5,4.1c0.6,0.7,1.2,1.3,1.8,2c0.5,0.5,1.8,1.4,2,2c-1.9-6-5.1-12-9.8-16.2
					c-2.4-2.1-6.5-3-9.6-3.6c-1.7-0.3-3.5-0.5-5.2-0.6c-1.2-0.1-4.1-0.7-5,0.4c-0.3,0.4-0.3,1.3-0.3,1.8c-0.1,0.9-0.2,1.8-0.2,2.7
					c-0.1,1.7-0.1,3.4,0,5.2c0.1,1.7,0.3,3.3,0.5,4.9c0.1,0.8,0.3,1.6,0.4,2.4c0.1,0.3,0.6,2,0.5,2.2c3.2-3.4,4.1-9.1,5.3-13.4
					c1.8,0.9,3.5,1.9,5.1,2.9c1.4,0.9,2.8,2.2,4.4,2.9c-0.1-1.1-1-2.4-1.6-3.3c-0.2-0.3-1.6-3-1.8-2.9c0.2,0,0.7-0.1,0.9-0.1
					C320.4,204.5,323.4,207.2,325.9,209.9z"/>
				<path class="st2" d="M310,324.7c-2.3-3.5-5.5-6.1-8.9-8.5c-2.9-2.1-6.4-3.4-9.5-5.1c-6.8-3.7-13.6-8.1-17.5-15.1
					c-2.1,3.5-5.4,6-8.9,7.9c-0.2,2.6-0.3,8.6,2.1,12.6c2.3,3.4,5.4,6.1,9.2,7.8c-5.8-0.9-10.7-5.3-12.9-10.7
					c-0.8-2.7-1.5-5.4-1.5-8.2c-7.9,3-16.3,4.9-24.7,4.7c-5-0.2-9.9,0.9-14.7,1.9c-6.1,1.5-12.4,2.6-18.1,5.5
					c-6.7,3.1-12.7,8.1-16.2,14.6c-4.7,9-5.7,19.8-2.7,29.5c2.9,9.8,10.1,17.6,18.2,23.6c6.3,4.8,11.6,11,13.9,18.7
					c-0.7-8.3-6.5-14.8-11.6-20.8l0.1-0.1c-7.1-8.3-14.7-17.4-15.7-28.8c1.4,6.2,3.9,12.1,7.7,17.2c4.3,6.2,10.4,10.8,16,15.9
					c4.1,3.7,7.3,8.4,9.3,13.5c-0.9-10.1-4.7-20.1-11.1-28c-2.9-3.4-5.6-7-7.4-11.1c-3.7-7.6-3.5-16.6-1-24.5
					c-1.2,7.2-0.5,14.9,2.4,21.6c2.8,7.9,9.4,13.6,15.1,19.6c6,6.2,11.6,13.5,12.6,22.3c1.3,7.8-1.8,15.6-6.6,21.5
					c2.1-1.4,8.9-6.5,11.5-15.1c0.1-0.3,0.1-0.6,0.2-0.8c2-9.1,1.1-18.6-0.8-27.6c1.1,2.3,1.9,4.7,2.6,7.2l0,0.1
					c1.5,5.2,1.9,10.6,1.2,15.9c0,0.1,0,0.1,0,0.2c-0.2,1.4-0.4,2.8-0.8,4.2c-0.5,2.2-1.1,4.3-2,6.3c-3.5,8.7-10.1,16.1-21.3,18.7
					c-1.5,1.1-3.1,2.2-4.5,3.4c0.8-0.6,3.8-0.5,4.9-0.7c1.7-0.3,3.4-0.7,5.1-1.1c3.3-0.9,6.6-2,9.7-3.5c5-2.4,9.1-6.1,12.9-10.1
					c1.6-1.7,3.1-3.4,4.6-5.2c0.2-0.2,0.3-0.4,0.5-0.6c0.3-0.4,0.6-0.7,0.8-1.1c0.4-0.5,0.8-1.1,1.2-1.7c0.2-0.3,0.4-0.5,0.5-0.8
					c0.2-0.4,0.5-0.7,0.7-1.1c0.2-0.3,0.4-0.7,0.6-1c0.2-0.4,0.5-0.8,0.7-1.3c0.3-0.5,0.5-1,0.8-1.5c0.1-0.2,0.3-0.5,0.4-0.8
					c0.3-0.7,0.6-1.3,0.9-2c0-0.1,0-0.1,0.1-0.2c0.3-0.7,0.6-1.5,0.8-2.2c0.1-0.2,0.1-0.4,0.2-0.6c0.3-0.8,0.5-1.5,0.7-2.3
					c2.9-9.9,2.5-20.9-2.2-30.2c-4-8.4-11.1-15.2-13.6-24.3c-2.8-9-0.6-20,7.3-25.7l0.7,0c-1.5,2.6-3.7,4.8-4.6,7.8
					c-2.5,7.6-0.6,16.1,3.5,22.8c5,8.2,11.8,15.2,15.7,24c3.9,8.7,2,20.4-1.2,29c-3.5,9.4-9.8,19.3-17.7,25.7
					c-5.3,4.2-10.9,8-17.1,10.8c10.6-0.3,21-4,29.9-9.7c4.8-3.2,9.7-6.5,13.4-11c3.1-3.1,6.1-6.4,8.9-9.8
					c5.2-6.2,8.8-13.5,11.3-21.1c0.3-0.8,0.6-1.6,0.8-2.5c0.3-1.1,0.5-2.2,0.8-3.3c3.1-15.6,0.2-33-10.5-45.2
					c3.5,3.3,6.6,6.9,9.3,10.9c2,3,3.1,6.4,4.6,9.7c0.9,4.5,2.2,8.8,2.6,13.4c0.1,1.1,0.2,2.3,0.3,3.4c0.4,8.3-1.2,16.9-4.7,24.5
					c-1.6,3.6-3.7,7.1-6,10.3c-2.1,3-4.7,6.7-7.6,8.9c10.2-7.7,17.6-18.9,21-31.2c3.5-12.3,3-25.5-0.7-37.7
					c2.3,5.7,3.8,11.6,4.6,17.7c0.8,6.5,0.7,13.1-0.7,19.5c-3.5,15.9-15.3,27.3-26.8,38c0.7-0.6,2.1-1,3-1.5c1-0.5,2-1.1,3-1.7
					c2-1.2,3.9-2.5,5.7-3.9c3.7-2.8,7.1-6,10-9.5c5.5-6.4,9.4-14.1,12.3-22c4.2-12.3,3.8-25.8,1.7-38.4
					C315.5,337.7,313.9,330.7,310,324.7z"/>
				<path class="st2" d="M151.9,334.9c-0.5-7.6,1.4-15,3.6-22.1c3.7-11.4,14.3-18.4,20.3-28.3l0.7-0.6c-2.3,5.5-5.8,10.3-9.4,15
					c-4.9,6.5-8.6,14-9.8,22.1c-1.3,10.5-0.3,22.4,7.1,30.6c1.1,1,2.2,2,3.4,3c-2-10.7-1.4-21.8,1.1-32.4c0.7-2.4,0.4-5,1-7.4
					c0.7-2.9,2.2-5.8,3.8-8.3c0.3-0.5,0.6-0.9,0.9-1.4c0.3-0.3,0.8-0.8,0.9-1.1c-1.7,4.2-2.7,8.8-2,13.4c-0.2-1.3,0.7-3.5,1-4.7
					c0.4-1.6,0.8-3.3,1.3-4.9c1.1-4.1,2.9-8.1,5.6-11.3c0.8-0.9,1.4-1.9,2.1-3c-2.9,4.7-5,9.9-6.3,15.3c3.9-3.3,9.4-4.1,13-7.8
					c7.1-7.9,10.8-18.7,9.6-29.3c-0.7-10.3-5.3-19.8-7.1-30c-2-9.8-1.3-19.9-0.9-29.8c-3.3-1.8-6.4-3.8-9.5-5.8
					c2.5,14.8,4.5,29.8,5.5,44.8c-0.2,0.8-0.5,2.3-0.6,3.1c0.4-4.9-1.2-9.6-1.9-14.3c-1.8-11.2-2.1-22.6-4.3-33.8
					c-1.9-0.7-3.9-1.4-5.8-2c2.9,10.5,5.4,21.2,6.3,32c0.3,6.1,0.1,12.1,0,18.2c-0.9,7.4-2.6,14.9-6.2,21.4
					c-3.1,6.3-7.2,12.6-13.2,16.6c6.3-8.7,12.3-17.9,15.1-28.3c2.8-13.2,0.9-26.7-1.6-39.8c-1-4.7-1.3-9.9-3-14.5
					c0.9,9.4,1.9,25.8-0.4,40.7c0,0,0,0.1,0,0.1c-0.1,0.7-0.2,1.4-0.3,2c-2.1,11.9-8.6,22.4-14.6,32.7c-6,9.2-11.5,19-13.4,29.9
					c-2.1,10.8-0.2,22.3,5,32c5,8.8,12.4,16.3,21.1,21.4c-1.5-1.7-3.2-3.2-4.7-4.8C157.9,355.6,152.7,345.6,151.9,334.9z"/>
				<path class="st2" d="M308.1,279.6c-1.8-1.5-4-2.5-6.1-3.5c-0.6,0.9-1.4,1.8-2.3,2.6c0.6,2.8,2.1,5.5,2.1,8.4
					c-1.4-2.2-2.2-5.1-4-7.1c-0.8,0.5-1.6,0.8-2.4,1c-2.9,0.6-5.8,0.9-8.7,1.2c-3.6,0.1-7.3-0.1-10.6-1.6c1.2,5.6,2.1,11.5,5.8,16
					c4.8,6,12.7,10.4,20.4,11.7c-1.3-1.8-2.4-4-3.4-6c-0.6-1.1-1.1-2.2-1.6-3.3c-0.4-0.9-0.7-2.3-1.3-3.1c2.5,3.4,5.1,7.7,8.9,9.8
					c3.5,1.9,6.8,4.2,9.5,7.1c-0.2-0.2-0.1-1.2-0.2-1.5c-0.1-0.6-0.1-1.1-0.2-1.7c-0.3-2.6-0.4-5.2-0.9-7.7c-0.5-2.7-1.3-5.4-2-8.1
					c-0.7-2.7-1.7-5.3-3-7.8c-1.8-3.1-4.5-5.5-6.6-8.3c5.9,4.5,9.7,11.1,12,18c3,9.4,8,18.7,16.4,24.4c-1.9-2.9-4.3-5.6-5.8-8.8
					c-3.4-6.7-3.7-14.5-7.3-21.1C314.5,286.3,311.7,282.5,308.1,279.6z"/>
			</g>
			<path class="st4" d="M260.7,256.3c7-4,15.9,5.5,18,11s14.6,6.2,20.5-1c0,0,2.4,8.6-3.8,11.7c-6.2,3.1-17.5,3.1-21.2-0.7
				c-3.7-3.8-2.4-8.7-6.3-9s-9.8,2.6-11.6-0.4c-1.8-3-1.6-9.5,0.2-10.6C258.3,256.1,260.7,256.3,260.7,256.3z"/>
			<path class="st4" d="M276.9,235.8c6-1.6,12.9-0.7,15.6,2c2.8,2.7,5.8-6.7-0.4-7.9s-9.3-2.1-11.7-0.6S276.9,235.8,276.9,235.8z"/>
			<path class="st4" d="M308.5,322.7c0,0-4.7-3.7-22.5-8.7s-28,3.2-31.7,9.9c-3.6,6.7,1.4,21.5,12.3,31.6
				c14.4,13.2,13.1,37.3,7.6,48.8c-5.5,11.5-11.6,18.5-9.9,23.3c0,0-18.5,13.9-32.9,12.6s1.9-4.9,7.3-9.2s19.4-13.8,23.3-31
				s4-29.4-5.9-40.6s-16.7-30.5-4.2-42.8c12.4-12.4,10.7-14.5,10.7-14.5l12.2-9.1c0,0,5.5,7.2,10.8,10.9s19.5,9.2,23.3,12.6
				S308.5,322.7,308.5,322.7z"/>
			<path class="st4" d="M251.4,317.5c-14.2-2.9-28.2-2.9-37.8,3.9c0,0-3.8,20.4,5.6,32.6c9.4,12.2,23.2,20.7,22,41.5
				c0,0,0.2,16.5-7,24.3c-7.2,7.8-13.7,5.9-13.7,5.9s-6.4-27.8-20.4-35.4s-21.3-16.8-26.2-27.3c-4.9-10.6-3.5-27.7-1.3-36.1
				c2.1-8.5,12.1-14.8,14.9-15.3s7.9-0.3,16.8,0s22-3.2,33.6-3.9s25.4-4.6,27.7-5.8c2.3-1.2-1.5,0.6-1.8,3c-0.2,2.4-1.4,8.2-3.5,10
				S251.4,317.5,251.4,317.5z"/>
			<path class="st4" d="M292.7,397.6c13.4-4.4,27.8-23.8,27.6-45.7s6.9,20,3.5,27.4s-7.5,25.3-15.9,31.9
				c-8.4,6.7-16.3,12.9-21.7,13.4s-10.5,5.5-10.1,1.4C276.4,421.8,292.7,397.6,292.7,397.6z"/>
			<path class="st4" d="M264.3,313.3c4.9,8.8,7.4,9.4,12.1,11.1c0,0-5.4-2.8-6.1-13.9C269.7,299.5,264.3,313.3,264.3,313.3z"/>
			<path class="st4" d="M161.9,301.5c-14,17.8-19,29.2-11.3,51.2s21.1,20.2,21.1,20.2s2.4-4.6-1.2-9.8s-13.1-11.5-14.9-22.5
				c-1.8-10.9-0.5-24.2,1.3-28.6C158.7,307.6,161.9,301.5,161.9,301.5z"/>
			<path class="st4" d="M171.5,234.9c7.4,23.4-5,51.9-5,51.9s12-15,13.1-29.6c0,0,3.7,4.9,2.7,14.8c0,0,7-4.7,8.4-15.9
				c0,0,3.4,14.9,0.7,25.7c-2.6,10.8-25.4,24.1-27.9,35.4c-2.5,11.3-2.3,25.6,4.2,37.3c0,0,5.3-26,7.5-33.4s19.9-18,23.1-23.4
				s5-13.9,4.6-23.2s-1.9-15.8-6.2-25.2c-4.3-9.4-3.2-39.2-3.2-39.2l-12.3-7.1l-8.9-3l-2.2,7.5c0,0,1.4,4.1,1.4,11.1
				C171.5,225.5,171.5,234.9,171.5,234.9z"/>
			<path class="st4" d="M194.5,303.6c11.5-1,32.7-11.3,32.7-11.3s-0.8,3.7-2.3,5.6c0,0,13.8-1,24.8-8.3c0,0-0.2,3.1-2.5,5
				c0,0,11.3,0.7,17.1-5.6c5.8-6.3,1.3-17.4,1.3-17.4l2.6,0.4c0,0,4.5,1.5,5.1,8.2s1.1,13-8.9,19.6s-30.1,6.7-33.8,7.9
				c-3.7,1.2-22.2,3.3-28.2,3.8s-16.1,2.7-17-0.7S194.5,303.6,194.5,303.6z"/>
			<path class="st4" d="M288,280.7c-4,7.9,1.7,21.4,13.3,24.4l4,5.6l-5.7,0.6c0,0-15.2-2.9-19.1-10.6c-3.9-7.7-6-17.6-6.1-20.5
				C274.2,277.3,288,280.7,288,280.7z"/>
			<path class="st4" d="M298.4,299.5c6.1,5,13.1,3.5,17,8.3s2.5,8.6,2.5,8.6l-13.6-7.2l-4.7-6.9L298.4,299.5z"/>
			<path class="st4" d="M318.1,308.4c4.2,3.2,10.7,6.4,10.7,6.4l4.6,7.9l-6-0.7l-7.6-7.2L318.1,308.4z"/>
			<path class="st4" d="M115.7,170.6c16.4,3.7,33.7,16.7,37.4,20.8l-14.6,9.9c0,0-1.5-6.6-6.3-14.2c-4.9-7.6-7.8-10.9-11.6-12.9
				S115.7,170.6,115.7,170.6z"/>
			<path class="st4" d="M118.8,168.6c17-7.8,30.3-11.3,40.8-3.1c10.5,8.2,18.7,26,40.4,22.4c0,0-1.9,9.8-5.5,13s-12.6,3.9-18.6,1.2
				c-6-2.7-13.7-7.8-16.5-9.2c-2.8-1.3-3.3-0.7-6.4-6.9c-3.1-6.2-5.3-12.7-9.7-15.4c-4.4-2.6-13.7-3.3-17.9-3.3
				c-4.2,0-3.4,0.7-3.4,0.7L118.8,168.6z"/>
			<path class="st4" d="M205.4,143.2c17,14,26.3,26.1,46.5,21.3s22.2-18.4,39.9-23.5c17.7-5.1,27.8-2.5,33.6,4.7
				c5.8,7.2,2.5-14.6,2.5-14.6s-11.1-9.4-22.4-6.1c-11.3,3.3-22.7,8-33.3,15.1c-10.6,7.1-16.4,16.4-26,14s-28-10.5-33.5-15.2
				s-5.5-4.7-5.5-4.7L205.4,143.2z"/>
			<path class="st4" d="M222.7,228.1c0,0-17.3-3.5-22.7,1.2c0,0,7.2-1.8,12,1.1c4.8,2.9,6.1,4,6.1,4s-11,3.3-15.6,4.4
				c0,0,3.4,0.5,7.7-0.6s14.7-1.5,14.7-1.5l1.7-6.8L222.7,228.1z"/>
			<path class="st2" d="M182.7,88.2c18.3-9.3,33.4-17.8,58.6-17.4c25.2,0.3,42.9,3.7,54,12.6s12.3,15.8,12.3,15.8s-34.7,3.6-43,8
				c0,0,72.8-9.8,99.5,7.8s29.9,19.7,31.1,18.2s-4.3-9.9-9.3-13.4c-5-3.5-14-10.4-30.9-14.8c-16.9-4.3-24.1-0.5-28.6-7
				c-4.5-6.5-17.6-22.4-27-27.2c-9.4-4.8-69.2-15.3-84.3-10c-15.1,5.3-24.2,12.5-29.2,17.1C180.9,82.5,182.7,88.2,182.7,88.2z"/>
			<path class="st4" d="M199.6,126.5c-6,13.3,1.6,56.8,1.6,56.8h4.2c0,0-4-20.8-2.4-31.3s3.1-21.7,3.1-21.7L199.6,126.5z"/>
			<path class="st4" d="M225.3,202.2c6-0.3,12.7-0.5,23.3-4.3c10.6-3.8,25.2-9.4,31.4,4.3c6.2,13.7-8.8,7.5-8.8,7.5l-37.1-1.9
				l-8.2,2.2l-3.6-3.9L225.3,202.2z"/>
			<path class="st4" d="M302.3,210.4c1.6-5.4,4.3-11.4,13-9.6c8.8,1.8,15.9,15.3,15.9,15.3s-9.3-4.1-13.1-2.2s-10.5,6.2-13.5,6.7
				C301.6,220.9,302.3,210.4,302.3,210.4z"/>
			<path class="st4" d="M244.1,265.8c-9.4,1.2-15.6-1.3-17.5-12.2c-1.9-10.9,1.5,3.2,8.7,4.3c7.2,1.1,15.8-0.4,17.4,2
				s2.6,5.6,0.7,6.1S244.1,265.8,244.1,265.8z"/>
			<path class="st4" d="M302.2,267.8c3.8,0.2,7.1-1.5,7.1-1.5l-1-5l-7,1L302.2,267.8z"/>
			<path class="st4" d="M200.9,260.3c12,9.3,10.1,29.3,10.1,29.3l-10.1,6.5c0,0,3-20.3,2.5-24C202.8,268.3,200.9,260.3,200.9,260.3z
				"/>
			<path class="st4" d="M162.9,209.9c-5.3-2.7-11.1-0.7-12.8,5.9c-1.7,6.6-1.1,18.6,7.6,22.6c8.7,3.9,11,8.4,11.2,7.9
				c0.2-0.5,1.7-13.4,0.4-18.4c-1.3-5-2.1-11.3-3.6-13.6C164.2,211.9,162.9,209.9,162.9,209.9z"/>
			<path class="st4" d="M121.7,179.8c-4.4,8-4.9,34.5,1.8,40.8c6.7,6.3,11.6-6.3,13.8-11.9s2-7.2-2.1-14.3s-5.7-15.8-9.3-15.8
				C122.2,178.6,121.7,179.8,121.7,179.8z"/>
			<path class="st4" d="M136,150.6c16.4-14.4,51-3.7,63.2,10.1l0.5-26.4c0,0-12.1-3.7-22.5-3.7s-22.2,2.8-22.2,2.8s-8.8,4.9-1.9,2.4
				c6.8-2.5,25.9-6.1,45,1.8l-0.3,10.3c0,0-18.3-8.4-39-7.2S132.2,153,132.2,153L136,150.6z"/>
			<path class="st4" d="M187.7,172.1c0,0-11.2-4.5-16.4-10.7c0,0,5.1,0.9,10.1,4.1C186.6,168.8,187.7,172.1,187.7,172.1z"/>
		</g>
		<g id="Outline">
			<path class="st5" d="M400.5,128.7c-4.1-7.3-11-12.5-18-16.9c-14.4-8.6-31-12.8-47.5-15.1c-5.5-9.3-13.5-16.9-22.1-23.4
				C298.7,62.8,281.7,56.1,264,54c-24.5-2.9-49.9,0.8-72.2,11.5c-6.7,3.2-13.4,6.7-19.1,11.7c-3.1,2.6-4.4,6.6-5.5,10.3
				c-1.8,6.7-2.7,13.6-3.5,20.5c-9.5,3.6-19.1,7.2-27.7,12.8c-3.3,2.3-7.9,3.7-9.1,8c-1.7,5.6-2.3,11.5-3.7,17.2
				c-8.7,1.9-17.2,6.1-22.8,13.1c-4,4.9-4.6,12.3-1.2,17.6c2.7,4.1,7.1,6.8,11.5,8.7c-2.3,8.2-4.2,17-1.7,25.3
				c2.4,8,9,14.1,16.2,17.8c0.5,3.7,0.8,7.4,2,10.9c1.5,4.8,4.7,8.8,7.7,12.8c3.8,5,9.2,8.6,14.9,11c2.3,1,4.6,2,6.6,3.5
				c0.6,0.4-3.6,9.3-4.1,10.3c-4.1,9.1-11.4,16.8-14.8,26.1c-3.6,9.9-4.1,20.9-2.3,31.2c1.9,10.9,6.4,21.1,12.8,30.1
				c11.1,15.7,27.3,25.9,40.6,34.2c-0.6-1.8-1.2-3.4-1.6-4.3c-2-4.4-3.1-6.6-3.1-6.6c13.7,11.9,26.4,16.9,27.6,31.8
				c2.1,15-24.1,23.8-24.1,23.8s47.2,10.5,85.9-5.8c0-0.1,0-0.1,0-0.2c0.1,1.2,0.1,5.9-0.6,9.6c8.6-4.9,26.4-16.6,42-37.3
				c21.4-28.4,16.4-59.7,12.8-75.4c0.1,0.3,0.6,0.5,1.1,0.6c12.4,6.5,26.9-0.6,26.9-0.6c-19.3-7.7-26-20.6-27.7-29.5
				c-1.8-8.9-3.9-26.3-16.6-31c-0.1-3.5-0.1-7.1-0.5-10.6c5-1.5,10.4-2.4,14.6-5.7c4.3-4.4,6-10.8,5.9-16.8c3.9-0.8,8.3-2.8,9.4-6.9
				c1.1-3.9-1.6-7.5-4.1-10.2c3.1-2.6,3.5-6.9,4.4-10.6c4-0.2,8.3-0.3,11.6-2.8c3.9-2.8,5-8.3,3.5-12.7c-0.9-2.6-3-4.5-4.8-6.4
				c-2.1-2.2-3.5-5-4.9-7.7c15.1-5.4,29-13.4,42.1-22.5c3.9-3,8.1-5.9,11-10C404,144.3,404,135.5,400.5,128.7z M222.8,72.8
				c0.4-0.3,0.8-0.6,1.2-0.9c1.8-1.3,3.7-2.7,6.1-3.1c5.4-1,11-1.3,16.5-1.6c18.1-0.5,36.7,3.4,52.1,13.3c0.2,0.2,0.5,0.3,0.7,0.5
				c2.8,1.9,5.6,4,8.1,6.3c2.5,2.2,5.3,4.8,7,7.7c0.1,0.3,1,2.1,1.1,2.1c-4.1-0.1-8.2-0.2-12.3,0c-8.4,0.4-16.8,1.3-25.1,2.8
				c-8.3,1.5-16.5,3.6-24.5,6.3c-8,2.7-15.8,6-23.3,9.8c-6.9,3.3-13.2,7.7-18.9,12.8c-1-10.5-4.8-20.7-3.6-31.3
				c0.2-1.9,1.1-3.9,1.8-5.6c0.7-1.9,1.6-3.7,2.5-5.4C214.8,81.4,218.3,76.4,222.8,72.8z M179.7,99.3c2.1-8.3,8.6-14.6,15.7-18.8
				c5.4-3.2,11.2-6,17.2-8c-2,3-5,7.7-7.2,12.8c-1.4,2.8-2.4,5.6-3.1,8.7c-1.2,5.3-0.6,10.8-0.8,16.3c0,2-2.5,2.1-3.9,2.7
				c-6.7,1.6-12.9,4.5-19.3,6.8C178.3,112.9,177.1,105.8,179.7,99.3z M136.3,208.9c-4.2,1.3-6.8-2.9-9.8-5c1.6,3.9,2.8,8.1,5.3,11.6
				c-3-2.1-5.8-4.7-7.1-8.2c-1-2.6-1-5.4-1.2-8.1c0.5-5.3,1.8-10.6,3.8-15.5c3,5,5.4,10.3,7.8,15.6
				C136.7,202.2,136.8,205.6,136.3,208.9z M128.9,178.7c-1.8-1.9-3.7-3.7-5.9-5.1c0,0-2.9-2.2-6.5-2.8l0,0c-0.3,0-0.5,0-0.8-0.1
				c0,0,0,0-0.1,0c-1.4-0.1-2.8-0.3-4.2-0.4c2.9-4.1,6.6-7.8,11.1-10.2c5.4-3,11.7-5.2,15.5-10.5c3.7-5.1,7.9-10.2,13.7-13
				c7.9-3.9,16.8-5.4,25.5-5.8c-9.7-0.1-20-0.4-29,3.9c-3.4,1.6-6,4.3-9,6.4c4.6-8.2,13.5-13.5,22.6-15.2c13.1-2.1,27-0.1,39,5.6
				c1,0.5,2.2,1,2.6,2.1c-2.8,14.7-2.5,29.9-1.3,44.7c0.1,1,0.4,1.9,0.4,3c0,0.1,0,0.2-0.1,0.2c-0.1,0.1-0.2,0.1-0.3,0.1
				c-6.1,1.9-13,1.1-18.6-2c-0.8-0.4-1.4-1-2.2-1.5c1.1,3.1,5.1,5.2,7.9,6.6c3.2,1.6,6.5,3,9.2,5.3c0.7,0.6-3.6,2.3-4.2,2.5
				c-2,0.7-4,1.2-6.1,1.3c-2,0.2-4,0-5.9-0.4c-1.6-0.3-4.4-0.9-5.6-2.1c4,4,9.1,6.7,14.6,7.7c-2.7,1.2-12.2,1.8-17.2-2.5
				c-2.8-2.4-4.9-5.6-7.3-8.4c0,0,1,3.6,2.5,6.8c-3-1.2-5.8-2.7-8.5-4.3c-4.4-2.7-7.3-7.1-9.9-11.4c6.4,2.2,12.9,4.1,19.1,6.8
				c-3.1-2.4-6.6-4.4-9.7-6.9c-5.9-4.8-12.1-9.8-19.5-12.1c-0.9-0.3-1.9-0.6-2.8-0.8c-1.9-0.4-3.9-0.7-5.8-0.8
				c-3.4,0.1-7.4,1.1-13.2,3c4.3-0.2,8.8-0.8,12.9,0.8c8.5,3.9,15.5,10.7,20.1,18.8c1,1.9,0.8,3.3-0.9,3.6c-3.9,1-7.6,2.6-10.2,5.8
				C137.1,191,133.6,184.4,128.9,178.7z M233.1,259.9c1.8,0.8,3.7,1.6,5.6,2c4.1,0.8,8.4,0.7,12.6,0.3c0,0.8,0,1.6,0.1,2.4
				c-2.3,0-4.6,0.1-6.9,0.2c-1.6,0.2-3.1,0.3-4.6,0.5c-3.9,0.9-7.6,2.8-10.9,5c-8.7,6-15.9,13.6-23.5,20.8
				c0.9-6.4,1.1-12.9,0.3-19.3c8.3-4,16.5-9.8,19.7-18.8c1.2,2.3,2.9,4.4,4.9,6.1c-2.1,2.6-3.8,5.5-5.4,8.5
				C226.3,267.5,231.6,261.6,233.1,259.9z M283,200.3c-0.5-3.7-2.3-7.1-5-9.8c-3-2-6.4-2.9-10-2.9c-6,0-11.9,0.1-17.8,1.1
				c5.5-3.5,11.4-6.7,18-7.2c5.5-0.3,12.2-0.5,16,4.3c3.5,4.9,2.5,11.4,2.9,17.1c0.1,3.7-0.7,8.2-4.8,9.4
				C282.8,208.2,283.3,204.3,283,200.3z M242.8,296.7c-3.1,2.5-6.4,5-10.3,6.1c-5.9,1.9-12.1,2.3-18,4.2c2.2-3,4.6-5.7,6.6-8.9
				c-5.2,3.9-10.4,7.8-16.7,9.8c-4.8,1.8-10.1,1.6-15.1,1.3c1.9-1.6,4.3-2.3,6.5-3.3c5.4-3.1,10.4-7,14.6-11.6
				c6.7-7.4,13.6-14.9,22.2-20.2c6.7-4.2,15-4.7,22.7-3.8c0.9,0.1,1.7,0.3,2.5,0.6c-3.5,2-10.8,2.9-10.8,2.9s3.7,0.7,8.3,0
				c2.8-0.3,5.3-1.7,8.2-1.4c-1.6,2.2-4.1,3.5-6.2,5.1c3.9-0.6,7.2-2.8,10.3-5c0.2,0.6,0.6,1.7,0.8,2.3c3.3,4.5,5,10.7,2.6,16
				c-2.5,5.1-7.5,8.3-12.6,10.2c-7.4,2.9-15.3,3.6-23.2,4.1c2.9-1.9,5.8-4.1,7.6-7.2L242.8,296.7z M268,264.4
				c-3.1-1.5-6.1,0.6-8.9,1.8c-2,0.8-2.1-2-2-3.3c0.3-3,2.6-4.3,4.9-5.8c2.5-1.7,5.1-3.4,7.2-5.6c5.7-5.5,8.9-13,11.1-20.5
				c3.3-1.9,7.6-1.2,10.8,0.6c0.5,3.6,0.2,7.4,1.9,10.8c1.2,2.3,2.2,4.8,2.7,7.3c1.5,5.2,2.8,10.6,2.7,16.1c0,3.3-1.9,6.3-4.3,8.3
				c-4,2.9-9.2,3.6-13.9,2.8c-3.1-0.5-6.2-2.2-7.5-5.1C271.5,269.2,271,265.7,268,264.4z M238.3,220.5c0-0.6,0.1-1.8,0.1-2.4
				c6.5-2.8,13.7-3.3,20.6-2.4c3.5,0.5,6.9,1.3,10.2,2.3c1.6,0.5,4.7,0.8,5.6,2.4c0.4,0.7,0.3,1.7,0.6,2.5c0.2,0.7,0.8,1.4,0.8,2.2
				c0,0.3-2.4-0.9-2.5-1c-0.9-0.6-1.6-1.5-2.5-2.1c-2-1.5-5-2-7.4-2.5c-2.8-0.6-5.7-1-8.6-1.1s-5.8,0-8.7,0.4
				C245.8,218.8,238.3,219.8,238.3,220.5z M242.3,229.6c-2.6,1-5.4,1.3-8.2,1.8c1.4-2.9,4-5,6.8-6.5
				C243.6,224.2,244.6,228.5,242.3,229.6z M258,191.5c5.4-0.8,11.3-2,16.3,0.8c5,3.2,5.9,9.8,4.9,15.2c-1.6-6.1-7.2-10.6-13.5-10.9
				c-10.4-0.5-20.1,3.9-29.1,8.5c1.4-2.9,3.8-5.1,5.7-7.6c-5.5,2.3-10.3,6.3-16.2,7.5c-0.9-5.7,4.1-10.7,9.5-11.2
				C243,193,250.6,192.9,258,191.5z M234.6,235.3c3.4,0.2,6.4,0.3,9.4-1.5c1.5-0.9,2.9-2,4.2-3.5c0.4-0.5,0.8-0.9,1.1-1.5
				c0.3-0.6,0.5-1.2,0.7-1.8c0.1-0.5,0.3-1,0.4-1.5c0-0.1,0.1-0.3,0.2-0.4c0.1-0.1,0.3-0.1,0.4-0.1c5.5,0.5,10.9,1.4,16.4,1.9
				c2.5,0.3,4.4,2.3,5.3,4.6c1.1,2.8,0.4,5.3-0.9,7.9c-2.7,5.3-7.2,9.5-12.2,12.6c-1.4,0.9-2.8,1.6-4.2,2.4
				c-5.5,3.1-12.2,3-18.2,1.8c-1.6-0.2-2.9-1.3-4.1-2.3c-1.9-2.8-2.7-6.2-2.5-9.6c0.1-1.7,0.4-3.3,0.9-4.9c0.3-1,1-3.8,2.1-4.2
				C233.9,235.3,234.3,235.3,234.6,235.3z M205.2,270c-1.4-6.1-3.5-12-5.3-18c3.2,1.7,6.8,3.6,10.5,2.4c3.7-0.8,6.2-3.7,8.6-6.5
				c2-2.5,3.9-5.1,6-7.6c-0.4,3.4-0.5,6.9-1.2,10.2C221,259.6,212.9,265.4,205.2,270z M215.8,246.5c-3.6,4.4-10.7,7.9-15.2,2.4
				c-2-2.4-2.9-5.5-3.6-8.4l-0.2-0.1c-0.3-1.6-0.6-3.2-0.9-4.8l-0.1-0.1c-1-7.4-1.6-14.9-1.3-22.4c0.7,0.5,1.5,1,2.2,1.5
				c3.3,2.3,7.1,4,10.5,6.2c5.8,3.8,11.8,8,18,11.1C223.5,234.9,218.3,243.4,215.8,246.5z M152.7,249.9c-3.8-2.2-7-5.6-8.8-9.6
				c-3-5-4.2-10.9-5.1-16.6c-1.2-7.8,0.5-16.2,5.2-22.6c2.8-3.9,7.8-6.4,12.7-5.5c3.5,1.1,6.6,3.1,9.4,5.4c0.5,3.1,1.4,8.3,2.7,13.8
				c-1.8-2.2-3.3-4.6-5.4-6.5c-0.6-0.3-1.1-0.7-1.6-1c-1.9-1.2-4.3-2.4-6.6-1.6c-3.2,1.3-5.4,4.3-6.5,7.5c-1.1,3.2-1.4,6.7-1.1,10
				c0.3,3.3,1.3,6.8,3.2,9.6c0.4,0.6,1,1,1.6,1.4c0.1,0,0.1,0.1,0.2,0.1c0.3,0,0.3-0.3,0.1-0.4c-0.6-0.5-0.9-1.2-1.2-1.9
				c-0.3-0.8-0.6-1.6-0.8-2.4c-0.4-1.7-0.6-3.4-0.6-5.1c-0.1-4.4,0.5-9.4,3.7-12.8c1.3-1.5,3.6-1.7,5.2-0.6c2.6,1.7,4.1,4.5,5.3,7.3
				c-2.2,0.3-4.6,0.9-6.2,2.5c-0.2,0.2-0.3,0.3-0.5,0.5c-2.4,2.6-3.2,6.4-2.9,9.8c0.1,0.9,0.2,1.9,0.4,2.8c0.2,0.9,0.3,1.8,0.6,2.6
				c0.7,1.6,1.4,3.1,2.3,4.5c1.8,2.9,4.1,5.4,6.9,7.3c0,2.5-0.3,5-0.6,7.5C160.8,253.3,156.4,252.2,152.7,249.9z M166.2,241.7
				c-3.3-2.9-5.8-7-5.9-11.5c-0.2-2.1,1.7-4,3.8-4c0.9,0.4,1.2,1.5,1.5,2.4C166.7,232.9,166.7,237.4,166.2,241.7z M148.8,346.7
				c-5.2-9.7-7.1-21.2-5-32c1.9-10.9,7.4-20.7,13.4-29.9c6-10.3,12.5-20.7,14.6-32.7c0.1-0.7,0.2-1.4,0.3-2c0,0,0-0.1,0-0.1
				c2.4-14.9,1.4-31.3,0.4-40.7c1.8,4.5,2.1,9.8,3,14.5c2.5,13.1,4.4,26.6,1.6,39.8c-2.8,10.5-8.8,19.7-15.1,28.3
				c6-3.9,10.1-10.2,13.2-16.6c3.7-6.6,5.3-14,6.2-21.4c0-6,0.3-12.1,0-18.2c-0.9-10.9-3.4-21.5-6.3-32c1.9,0.7,3.9,1.4,5.8,2
				c2.2,11.2,2.5,22.6,4.3,33.8c0.3,2.2,0.9,4.3,1.3,6.5c0.3,1.7,0.6,3.5,0.8,5.3c0,0,0.2,0,0.2,0c0.1-0.1,0.1-0.2,0.1-0.3
				c-0.3-3.5-0.4-7-0.8-10.5c-0.3-3.1-0.6-6.2-1-9.3c-0.9-7.2-1.9-14.4-3.1-21.6c-0.2-1.2-0.4-2.4-0.6-3.6c3.1,2,6.3,4.1,9.5,5.8
				c-0.5,9.9-1.2,20,0.9,29.8c1.8,10.1,6.3,19.6,7.1,30c1.1,10.6-2.6,21.4-9.6,29.3c-3.5,3.8-9,4.5-13,7.8
				c1.2-5.4,3.3-10.6,6.3-15.3c-0.7,1-1.3,2-2.1,3c-2.7,3.2-4.5,7.3-5.6,11.3c-0.4,1.6-0.9,3.2-1.3,4.9c-0.3,1.3-1.2,3.4-1,4.7
				c-0.7-4.6,0.2-9.2,2-13.4c-0.2,0.4-0.7,0.8-0.9,1.1c-0.3,0.4-0.6,0.9-0.9,1.4c-1.6,2.5-3.1,5.4-3.8,8.3c-0.6,2.4-0.3,5-1,7.4
				c-2.5,10.6-3.1,21.7-1.1,32.4c-1.1-1-2.2-2-3.4-3c-7.3-8.2-8.4-20.1-7.1-30.6c1.2-8.1,4.9-15.7,9.8-22.1c3.6-4.7,7-9.5,9.4-15
				l-0.7,0.6c-6,10-16.5,16.9-20.3,28.3c-2.2,7.2-4.1,14.6-3.6,22.1c0.7,10.7,6,20.7,13.2,28.4c1.6,1.6,3.2,3.1,4.7,4.8
				C161.2,362.9,153.7,355.5,148.8,346.7z M176.2,363c-4.5-8.8-4.3-19.2-2.4-28.7c1.5-7.9,6.6-14.6,12.8-19.4
				c5.2,0.7,10.5,1.5,15.8,1.2c-8.9,4.1-16.6,11.4-20.2,20.5c-4,10.1-3.9,21.8,0.7,31.7c2.8,6.2,7.2,11.6,11.4,16.9
				C186.7,379.2,180.5,371.6,176.2,363z M315.2,383.1c-2.9,7.9-6.8,15.6-12.3,22c-3,3.5-6.4,6.7-10,9.5c-1.8,1.4-3.8,2.7-5.7,3.9
				c-1,0.6-2,1.2-3,1.7c-0.9,0.4-2.3,0.8-3,1.5c11.5-10.6,23.4-22.1,26.8-38c1.4-6.4,1.5-13,0.7-19.5c-0.8-6.1-2.3-12-4.6-17.7
				c3.7,12.2,4.1,25.5,0.7,37.7c-3.5,12.3-10.8,23.5-21,31.2c3-2.2,5.5-5.9,7.6-8.9c2.3-3.2,4.4-6.7,6-10.3
				c3.5-7.6,5.1-16.2,4.7-24.5c-0.1-1.1-0.2-2.3-0.3-3.4c-0.4-4.6-1.7-8.9-2.6-13.4c-1.5-3.2-2.6-6.7-4.6-9.7
				c-2.7-3.9-5.8-7.6-9.3-10.9c10.7,12.2,13.5,29.6,10.5,45.2c-0.3,1.1-0.5,2.2-0.8,3.3c-0.3,0.8-0.6,1.6-0.8,2.5
				c-2.5,7.6-6.1,14.9-11.3,21.1c-2.9,3.4-5.8,6.7-8.9,9.8c-3.7,4.5-8.6,7.8-13.4,11c-8.9,5.7-19.2,9.4-29.9,9.7
				c6.2-2.9,11.8-6.6,17.1-10.8c7.9-6.3,14.2-16.2,17.7-25.7c3.2-8.6,5.1-20.3,1.2-29c-3.9-8.8-10.7-15.9-15.7-24
				c-4.1-6.7-6.1-15.2-3.5-22.8c0.9-3,3.1-5.2,4.6-7.8l-0.7,0c-7.9,5.7-10.1,16.7-7.3,25.7c2.5,9.1,9.6,15.9,13.6,24.3
				c4.6,9.3,5,20.3,2.2,30.2c-0.2,0.8-0.4,1.6-0.7,2.3c-0.1,0.2-0.1,0.4-0.2,0.6c-0.3,0.7-0.5,1.5-0.8,2.2c0,0.1,0,0.1-0.1,0.2
				c-0.3,0.7-0.6,1.3-0.9,2c-0.1,0.3-0.2,0.5-0.4,0.8c-0.3,0.5-0.5,1-0.8,1.5c-0.2,0.4-0.5,0.8-0.7,1.3c-0.2,0.3-0.4,0.7-0.6,1
				c-0.2,0.4-0.5,0.7-0.7,1.1c-0.2,0.3-0.3,0.5-0.5,0.8c-0.4,0.6-0.8,1.1-1.2,1.7c-0.3,0.4-0.6,0.7-0.8,1.1
				c-0.2,0.2-0.3,0.4-0.5,0.6c-1.4,1.8-3,3.6-4.6,5.2c-3.8,4-7.9,7.7-12.9,10.1c-2.8,1.4-5.7,2.4-8.6,3.2c-3.4,1-6.7,1.6-10.2,1.4
				c0.2,0,0.8-0.5,1-0.6c0.4-0.2,0.8-0.5,1.2-0.7c0.8-0.4,1.6-0.9,2.5-1.2c1.5-0.7,3.1-1.3,4.7-2c2.7-1.2,5.2-2.8,7.4-4.8
				c3.6-3.3,6.3-7.5,8.1-12c0.8-2,1.5-4.2,2-6.3c0.3-1.4,0.6-2.8,0.8-4.2c0-0.1,0-0.1,0-0.2c0.7-5.3,0.3-10.7-1.2-15.9l0-0.1
				c-0.7-2.5-1.5-4.9-2.6-7.2c1.9,9,2.8,18.5,0.8,27.6c-0.1,0.3-0.1,0.6-0.2,0.8c-2.5,8.6-9.3,13.7-11.5,15.1
				c4.8-6,7.9-13.8,6.6-21.5c-1-8.8-6.6-16.1-12.6-22.3c-5.6-6-12.2-11.7-15.1-19.6c-2.9-6.7-3.7-14.4-2.4-21.6
				c-2.5,7.9-2.7,16.9,1,24.5c1.9,4.1,4.6,7.7,7.4,11.1c6.4,8,10.1,17.9,11.1,28c-2-5.2-5.2-9.8-9.3-13.5c-5.6-5-11.7-9.6-16-15.9
				c-3.8-5.1-6.3-11-7.7-17.2c1,11.3,8.5,20.5,15.7,28.8l-0.1,0.1c5.2,6,10.9,12.5,11.6,20.8c-2.3-7.7-7.6-13.9-13.9-18.7
				c-8.1-5.9-15.3-13.8-18.2-23.6c-3-9.7-2-20.5,2.7-29.5c3.5-6.6,9.5-11.5,16.2-14.6c5.7-2.9,12-3.9,18.1-5.5
				c4.8-1.1,9.7-2.1,14.7-1.9c8.5,0.2,16.9-1.6,24.7-4.7c0.1,2.8,0.7,5.5,1.5,8.2c2.2,5.4,7.1,9.8,12.9,10.7
				c-3.8-1.7-6.9-4.5-9.2-7.8c-2.4-4-2.3-10-2.1-12.6c3.5-1.9,6.8-4.4,8.9-7.9c3.9,7,10.7,11.4,17.5,15.1c3.1,1.7,6.6,3.1,9.5,5.1
				c3.4,2.4,6.6,4.9,8.9,8.5c3.9,5.9,5.5,13,6.9,19.9C319,357.3,319.5,370.7,315.2,383.1z M316.8,290.3c3.6,6.6,3.9,14.4,7.3,21.1
				c1.5,3.2,3.8,5.9,5.8,8.8c-8.4-5.7-13.4-15-16.4-24.4c-2.3-6.9-6.1-13.5-12-18c2.1,2.8,4.9,5.2,6.6,8.3c1.4,2.4,2.3,5.1,3,7.8
				c0.7,2.6,1.5,5.4,2,8.1c0.5,2.6,0.6,5.1,0.9,7.7c0.1,0.6,0.1,1.1,0.2,1.7c0,0.3,0,1.3,0.2,1.5c-2.7-2.9-6-5.2-9.5-7.1
				c-3.8-2.1-6.4-6.4-8.9-9.8c0.6,0.8,0.9,2.2,1.3,3.1c0.5,1.1,1,2.2,1.6,3.3c1,2,2.1,4.2,3.4,6c-7.6-1.2-15.5-5.6-20.4-11.7
				c-3.7-4.6-4.6-10.5-5.8-16c3.3,1.5,7,1.7,10.6,1.6c2.9-0.3,5.8-0.6,8.7-1.2c0.8-0.2,1.6-0.6,2.4-1c1.8,1.9,2.6,4.8,4,7.1
				c-0.1-2.9-1.5-5.6-2.1-8.4c0.9-0.8,1.7-1.7,2.3-2.6c2.2,1,4.3,2,6.1,3.5C311.7,282.5,314.5,286.3,316.8,290.3z M317.7,206.3
				c0.6,1,1.4,2.2,1.6,3.3c-1.6-0.6-3-2-4.4-2.9c-1.7-1.1-3.4-2-5.1-2.9c-1.2,4.3-2.1,10.1-5.3,13.4c0.2-0.2-0.4-1.9-0.5-2.2
				c-0.2-0.8-0.3-1.6-0.4-2.4c-0.3-1.6-0.4-3.3-0.5-4.9c-0.1-1.7-0.1-3.4,0-5.2c0-0.9,0.1-1.8,0.2-2.7c0.1-0.5,0-1.4,0.3-1.8
				c0.9-1.1,3.8-0.5,5-0.4c1.8,0.1,3.5,0.3,5.2,0.6c3.1,0.5,7.2,1.4,9.6,3.6c4.8,4.2,7.9,10.2,9.8,16.2c-0.2-0.6-1.5-1.5-2-2
				c-0.6-0.7-1.2-1.3-1.8-2c-1.2-1.4-2.3-2.8-3.5-4.1c-2.5-2.7-5.6-5.4-9.1-6.6c-0.2,0-0.7,0.1-0.9,0.1
				C316.1,203.4,317.6,206,317.7,206.3z M306,230.7c0.5,0.1,0.8,0.3,0.8,0.6c0.2,1-1.5,2.7-2,3.2c-0.9,0.9-2.1,1.6-3.4,1.8
				c-1.1,0.1-2.1-0.6-2.6-1.6c-0.5-1.2,0-2.4,1-3.2C301.7,230,303.9,230.2,306,230.7z M302.8,264.3c1.5-0.2,3-0.3,4.6-0.4
				c0.1,2.6,0.3,5.2,0.5,7.8c-1.4-0.5-3.1-0.6-4.2-1.6C303.1,268.2,303,266.2,302.8,264.3z M327.8,243.4c-0.1,1.9-0.8,3.8-1.6,5.5
				c-0.4,0.8-0.8,1.7-1.3,2.4c-0.4,0.5-1.7,1.4-1.8,1.9c1.3-4,2.6-10.1,2.7-12.8c0-1.3,0.1-3.2-0.9-4.2c-0.8,2.8-0.6,6.1-1.1,9.1
				c-0.7,3.8-2.2,7.5-5.5,9.7c-3.1,2-6.8,2.9-10.4,3.8c0,0,0-0.1,0-0.1c-2.9,0.7-5.1,1-5.1,1c-0.5-4.4-1.9-8.7-2.5-13.1
				c2.3,0.7,4.2,2.1,6.1,3.5c0.3-3.7-2.4-6.3-5.4-7.9c0.3,0,0.7-0.1,1-0.2c2.5-1,5.4-1.8,7.5-3.6c2.2-2,3.6-4.8,3.5-7.7
				c0-1.1,0.2-1.4,1.3-1.2c2.5,0.2,5.1,0.5,7.4,1.5c4.6,1.9,6.2,6.4,6.3,11.1C327.9,242.4,327.8,242.9,327.8,243.4z M333.8,231.9
				c0,1.8-1.3,3.5-3.3,3.5c0.1-2.2-0.1-4.5-0.8-6.6c-0.6-2.1-3.9-3.2-5.7-4c-2.6-1.1-5.3-1.7-8.1-2.1c-4.1-0.5-8.3-0.4-12.4,0
				c2.2-1.1,4.4-1.3,6.7-1.6c2.5-0.3,5-0.5,7.6-0.6c2.6-0.1,5.2-0.3,7.7,0.3C331.1,222.1,334.2,226.3,333.8,231.9z M332.4,195
				c-0.2,1.2-0.4,2.3-0.6,3.5c-2.6-1.4-4.2-4-6.4-5.8c0.3,1.4,0.7,2.8,1,4.2c-2.3-0.6-4.7-1.2-7-1.8c0.2,0,1.9-2,2.2-2.2
				c0.9-0.8,1.9-1.5,2.9-2.2c2.1-1.3,4.4-2.3,6.8-2.9c0,0-0.7-0.3-0.9-0.3c-0.4,0-0.9,0.1-1.3,0.1c-1,0.2-2,0.4-3,0.6
				c-2.1,0.6-4.2,1.5-6.1,2.8c-1.4,1-2.3,2.2-2.9,3.8c-4.2,0.3-8.4,0.3-12.6,0.6c-2.1-0.1-2.9,2.2-3.3,3.9
				c-1.4,5.9-1.6,11.9-2.2,17.9c-0.6,3.3-1.3,6.9-4,9.2c-1.9-0.5-3.9-0.9-5.8-1.3c-2.7-0.2-5.4-0.3-8-0.3c-0.4-2.6,1.4-4.5,3-6.2
				c1-1.4,2-2.9,3.1-4.3c3.4-6.3,2.4-13.7,1.6-20.5c-0.5-4.9-2.8-10.5-7.8-12.3c-5.1-1.8-10.3-3.4-15.6-4.3
				c-3.5-0.6-7.1-0.9-10.7-0.7c-2.7,0.1-5.4,0.3-8.1,0.8c-1.9,0.3-3.8,0.9-5.7,1.4c-0.8,0.2-1.4,0.2-2.1,0.5
				c-0.9,0.4-1.8,0.7-2.8,1.1c-3.7,1.5-7.3,3.1-10.9,4.8c-4,1.8-8,3.8-11.6,6.3c-0.1,0.1-0.2,0.1-0.2,0.2c-2.8,2-5.3,4.3-7.3,7
				c-0.2,0.2-1.4,1.8-1.2,2c0.2,0.2,1.6-1.3,1.8-1.5c1.3-1.2,2.7-2.4,4.3-3.3c7.3-4.5,15.2-8,22.8-12c5.8-3.2,12.3-5.1,18.9-5.5
				c5.5-0.3,10.9,0.8,16.3,1.5c-3.2,0.9-6.6,1.2-9.8,2.1c-5.3,1.4-10.3,3.8-15.4,5.6c-4.5,1.6-9.4,1.9-13.8,3.9
				c-4.8,2.2-8.8,5.8-13.1,8.8c-2.7,1.8-5.8,3.1-8.5,5c5.1-2.3,10.2-4.5,15.1-7.2c-0.4,0.2-0.8,1.3-1.1,1.7c-0.4,0.6-0.7,1.3-1,2
				c-0.6,1.4-1,2.8-1.2,4.3c-0.2,1.4,0,2.9,0.5,4.2c0.7,1.9,2.4,2.9,4.1,3.8c1.4,0.8,3,1.3,4.6,1.8c0.4,0.1,3.7,1,3.8,0.6
				c-1.2,3.4-1.7,7.1-3.4,10.3c-5.8-3.3-11.9-6.2-17.3-10c-2.5-1.6-5.1-3-7.8-4.4l0-0.1c-1.9-1.1-3.8-2.3-5.5-3.6
				c1.1-4.4,2.2-8.9,5.1-12.5c1.7-2.4,3.5-4.7,5.3-7.1c-1.4-9.7-2.8-19.4-2.8-29.2c0-4.1,0.3-8.2,0.3-12.3c0.2-2.8,0.4-5.7,0.5-8.5
				c8.8,4.9,16.9,11,25.6,16c7.2,4.2,18.1,5.3,25.5,1.1c3.4-1.9,6.2-4.6,9.4-6.9c8.9-6.4,18.3-12.9,29.2-15.3
				c6.4-1.4,13.4-0.4,19,3.2l0.1,0.2c1.9,1.1,3.9,2.4,5.4,4.1c0.8,0.9,1.8,1.6,2.3,2.7c4.6,5.2,6.3,12.1,7.3,18.8
				c1.4,9.1,0.1,18.5,2.9,27.3c1,3.6,4,6,6.2,8.8C337.5,198.3,334.8,196.9,332.4,195z M349.3,108.5c-3.7-0.7-7.5-1.4-11.2-1.8
				c-8.3-1.2-16.6,0.6-24.3,3.6c-16.4,6.3-30.6,16.7-45.2,26.2c-5.7,3.7-11.3,8.1-18.2,9.1c-6.4,0.9-12.8-0.8-18.8-2.8
				c-6.5-1.7-12.5-4.8-18.1-8.5c16.7-12.5,35.9-21.3,55.8-27.2c13.8-4.1,28.3-5.2,42.7-5.5c12.5-0.3,25,1.4,37.1,4.5l0,0.2
				c10.6,2.7,20.9,7.3,29.5,14.2c2.4,2,4.9,3.9,6.7,6.5C374.8,118.4,362.6,111.4,349.3,108.5z"/>
			<path class="st5" d="M243.9,169.9c-0.2,0-0.4,0-0.7,0c-1.6,0.3-3.1,1.1-4.6,1.8c-0.1,0.1-0.3,0.1-0.4,0.2
				c-3.4,1.6-6.6,3.5-9.8,5.6c-1.1,0.8-2.3,1.5-3.4,2.3c-0.6,0.4-1.1,0.8-1.7,1.2c-0.5,0.4-1.1,0.9-1.7,1.2
				c4.4-1.9,8.2-4.8,12.6-6.8c0.1,0,0.1-0.1,0.2-0.1c1.7-0.8,3.3-1.6,5-2.4c0.9-0.4,1.7-0.7,2.6-1c0.5-0.2,0.9-0.3,1.4-0.4
				c0.4-0.1,1-0.1,1.2-0.5c0-0.1,0.1-0.1,0.1-0.2c0-0.2-0.1-0.3-0.2-0.5C244.4,170.1,244.2,169.9,243.9,169.9z"/>
			<path class="st5" d="M250.2,255.3c2.4-0.7,4.7-1.7,6.8-3.1c1.1-0.7,2-1.5,3-2.3c2.6-2.3,4.9-5.1,6.7-8.1c0.2-0.4,1.3-1.7,1.2-2.1
				c-0.1-0.5-1.7,0-2.1,0.1c-1.6,0.3-3.2,0.8-4.6,1.8c-1.5,1.1-2.5,2.6-3.5,4.1c-1,1.5-2.1,2.8-3.5,4c-2.9,2.7-6.5,4.1-10.4,4.8
				c-2.1,0.3-4.1,0.5-6.2,0.4c0,0,0.1,0,0.1,0C241.8,256.4,246.2,256.5,250.2,255.3z"/>
			<path class="st5" d="M283.9,165.3c1,0.3,2,0.5,3,0.8c2.8,0.6,5.6,1,8.5,1.3c1.4,0.1,2.9,0.2,4.3,0.3c1.4,0.1,2.8,0.2,4.2,0.1
				c7.1-0.4,14.3-0.5,21.2-2.4c1.1-0.4,2.9-0.7,3-2.2c-3.8,0.7-7.7,1.3-11.6,1.7c-5.7,0.6-11.4,0.8-17.1,0.4
				c-4.7-0.3-9.4-1.1-14-2.5c-1-0.3-3.3-0.7-3.4,0.9C281.8,164.9,282.9,165,283.9,165.3z"/>
			<path class="st5" d="M306.9,177c5.8-0.1,11.6-0.8,17.2-1.9c1.5-0.3,3.2-0.8,3.8-2.4c-12.6,3.1-25.9,3.2-38.7,0.6
				c-2.5-0.5-5-1.1-7.5-1.7c-1.2-0.3-2.5-0.6-3.7-0.9c-1.1-0.3-2.3-0.7-3.5-0.5c-0.4,0.1-0.8,0.3-1,0.6c-0.2,0.3-0.1,0.7,0.1,1.1
				c0.4,1,1.5,1.3,2.4,1.5c1.7,0.4,3.4,0.8,5.1,1.1c2.8,0.6,5.7,1.1,8.5,1.5C295.3,176.8,301.1,177.1,306.9,177z"/>
			<path class="st5" d="M327.3,181.5c-5.4,0.9-10.8,2.3-16.3,3.1c-2.8,0.4-5.6,0.7-8.4,0.8c-1.9,0.1-3.9-0.1-5.8-0.3
				c-1.2-0.1-2.4-0.2-3.6-0.4c-1.2-0.2-2.4-0.4-3.6-0.3c-0.2,0-0.3,0-0.5,0.1c-0.1,0.1-0.1,0.1-0.2,0.2c-0.1,0.2,0.3,0.5,0.5,0.6
				c0.5,0.4,1.1,0.7,1.7,0.9c1.9,0.7,4.1,0.8,6.1,1c2.2,0.2,4.5,0.2,6.7,0.2c1.7-0.1,3.3-0.2,4.9-0.4c5.4-0.6,10.8-1.7,16.1-3
				c0.9-0.2,5.1-1,4.2-2.8C329.2,180.9,327.5,181.4,327.3,181.5z"/>
		</g>
	</g>
</g>
</svg>
